%TF.GenerationSoftware,KiCad,Pcbnew,(7.0.0)*%
%TF.CreationDate,2023-08-02T11:45:28+02:00*%
%TF.ProjectId,WS2812B-2020_8x8,57533238-3132-4422-9d32-3032305f3878,rev?*%
%TF.SameCoordinates,Original*%
%TF.FileFunction,Drillmap*%
%TF.FilePolarity,Positive*%
%FSLAX45Y45*%
G04 Gerber Fmt 4.5, Leading zero omitted, Abs format (unit mm)*
G04 Created by KiCad (PCBNEW (7.0.0)) date 2023-08-02 11:45:28*
%MOMM*%
%LPD*%
G01*
G04 APERTURE LIST*
%ADD10C,0.100000*%
%ADD11C,0.200000*%
G04 APERTURE END LIST*
D10*
X8750000Y-8750000D02*
X11250000Y-8750000D01*
X11250000Y-8750000D02*
X11250000Y-11250000D01*
X11250000Y-11250000D02*
X8750000Y-11250000D01*
X8750000Y-11250000D02*
X8750000Y-8750000D01*
D11*
X8992619Y-11548476D02*
X8992619Y-11348476D01*
X8992619Y-11348476D02*
X9040238Y-11348476D01*
X9040238Y-11348476D02*
X9068810Y-11358000D01*
X9068810Y-11358000D02*
X9087857Y-11377048D01*
X9087857Y-11377048D02*
X9097381Y-11396095D01*
X9097381Y-11396095D02*
X9106905Y-11434190D01*
X9106905Y-11434190D02*
X9106905Y-11462762D01*
X9106905Y-11462762D02*
X9097381Y-11500857D01*
X9097381Y-11500857D02*
X9087857Y-11519905D01*
X9087857Y-11519905D02*
X9068810Y-11538952D01*
X9068810Y-11538952D02*
X9040238Y-11548476D01*
X9040238Y-11548476D02*
X8992619Y-11548476D01*
X9192619Y-11548476D02*
X9192619Y-11415143D01*
X9192619Y-11453238D02*
X9202143Y-11434190D01*
X9202143Y-11434190D02*
X9211667Y-11424667D01*
X9211667Y-11424667D02*
X9230714Y-11415143D01*
X9230714Y-11415143D02*
X9249762Y-11415143D01*
X9316429Y-11548476D02*
X9316429Y-11415143D01*
X9316429Y-11348476D02*
X9306905Y-11358000D01*
X9306905Y-11358000D02*
X9316429Y-11367524D01*
X9316429Y-11367524D02*
X9325952Y-11358000D01*
X9325952Y-11358000D02*
X9316429Y-11348476D01*
X9316429Y-11348476D02*
X9316429Y-11367524D01*
X9440238Y-11548476D02*
X9421190Y-11538952D01*
X9421190Y-11538952D02*
X9411667Y-11519905D01*
X9411667Y-11519905D02*
X9411667Y-11348476D01*
X9545000Y-11548476D02*
X9525952Y-11538952D01*
X9525952Y-11538952D02*
X9516429Y-11519905D01*
X9516429Y-11519905D02*
X9516429Y-11348476D01*
X9741190Y-11548476D02*
X9741190Y-11348476D01*
X9741190Y-11348476D02*
X9807857Y-11491333D01*
X9807857Y-11491333D02*
X9874524Y-11348476D01*
X9874524Y-11348476D02*
X9874524Y-11548476D01*
X10055476Y-11548476D02*
X10055476Y-11443714D01*
X10055476Y-11443714D02*
X10045952Y-11424667D01*
X10045952Y-11424667D02*
X10026905Y-11415143D01*
X10026905Y-11415143D02*
X9988809Y-11415143D01*
X9988809Y-11415143D02*
X9969762Y-11424667D01*
X10055476Y-11538952D02*
X10036429Y-11548476D01*
X10036429Y-11548476D02*
X9988809Y-11548476D01*
X9988809Y-11548476D02*
X9969762Y-11538952D01*
X9969762Y-11538952D02*
X9960238Y-11519905D01*
X9960238Y-11519905D02*
X9960238Y-11500857D01*
X9960238Y-11500857D02*
X9969762Y-11481809D01*
X9969762Y-11481809D02*
X9988809Y-11472286D01*
X9988809Y-11472286D02*
X10036429Y-11472286D01*
X10036429Y-11472286D02*
X10055476Y-11462762D01*
X10150714Y-11415143D02*
X10150714Y-11615143D01*
X10150714Y-11424667D02*
X10169762Y-11415143D01*
X10169762Y-11415143D02*
X10207857Y-11415143D01*
X10207857Y-11415143D02*
X10226905Y-11424667D01*
X10226905Y-11424667D02*
X10236429Y-11434190D01*
X10236429Y-11434190D02*
X10245952Y-11453238D01*
X10245952Y-11453238D02*
X10245952Y-11510381D01*
X10245952Y-11510381D02*
X10236429Y-11529428D01*
X10236429Y-11529428D02*
X10226905Y-11538952D01*
X10226905Y-11538952D02*
X10207857Y-11548476D01*
X10207857Y-11548476D02*
X10169762Y-11548476D01*
X10169762Y-11548476D02*
X10150714Y-11538952D01*
X10331667Y-11529428D02*
X10341190Y-11538952D01*
X10341190Y-11538952D02*
X10331667Y-11548476D01*
X10331667Y-11548476D02*
X10322143Y-11538952D01*
X10322143Y-11538952D02*
X10331667Y-11529428D01*
X10331667Y-11529428D02*
X10331667Y-11548476D01*
X10331667Y-11424667D02*
X10341190Y-11434190D01*
X10341190Y-11434190D02*
X10331667Y-11443714D01*
X10331667Y-11443714D02*
X10322143Y-11434190D01*
X10322143Y-11434190D02*
X10331667Y-11424667D01*
X10331667Y-11424667D02*
X10331667Y-11443714D01*
M02*
