%TF.GenerationSoftware,KiCad,Pcbnew,(7.0.0)*%
%TF.CreationDate,2023-08-02T11:45:39+02:00*%
%TF.ProjectId,WS2812B-2020_8x8,57533238-3132-4422-9d32-3032305f3878,rev?*%
%TF.SameCoordinates,Original*%
%TF.FileFunction,Legend,Bot*%
%TF.FilePolarity,Positive*%
%FSLAX46Y46*%
G04 Gerber Fmt 4.6, Leading zero omitted, Abs format (unit mm)*
G04 Created by KiCad (PCBNEW (7.0.0)) date 2023-08-02 11:45:39*
%MOMM*%
%LPD*%
G01*
G04 APERTURE LIST*
%ADD10C,0.000000*%
%ADD11C,0.100000*%
%ADD12C,0.300000*%
%ADD13C,0.150000*%
%ADD14C,0.125000*%
G04 APERTURE END LIST*
D10*
G36*
X99128926Y-103544380D02*
G01*
X99130308Y-103544600D01*
X99131651Y-103544952D01*
X99132954Y-103545441D01*
X99134216Y-103546069D01*
X99135433Y-103546840D01*
X99136606Y-103547757D01*
X99137731Y-103548824D01*
X99138808Y-103550044D01*
X99139834Y-103551422D01*
X99140808Y-103552959D01*
X99141728Y-103554661D01*
X99159905Y-103581338D01*
X99181861Y-103617732D01*
X99234373Y-103714819D01*
X99293801Y-103836221D01*
X99354678Y-103972233D01*
X99411540Y-104113152D01*
X99436758Y-104182420D01*
X99458922Y-104249276D01*
X99477350Y-104312507D01*
X99491359Y-104370901D01*
X99500265Y-104423243D01*
X99503386Y-104468323D01*
X99122693Y-105048879D01*
X99123216Y-105061180D01*
X99124759Y-105073116D01*
X99127281Y-105084715D01*
X99130742Y-105096001D01*
X99135103Y-105107002D01*
X99140322Y-105117743D01*
X99146361Y-105128250D01*
X99153178Y-105138550D01*
X99168990Y-105158633D01*
X99187437Y-105178199D01*
X99208198Y-105197459D01*
X99230953Y-105216622D01*
X99281160Y-105255490D01*
X99335494Y-105296478D01*
X99363407Y-105318289D01*
X99391390Y-105341258D01*
X99419122Y-105365592D01*
X99446282Y-105391503D01*
X99458390Y-105404073D01*
X99469759Y-105416785D01*
X99480431Y-105429612D01*
X99490448Y-105442528D01*
X99499852Y-105455507D01*
X99508683Y-105468522D01*
X99524800Y-105494557D01*
X99539131Y-105520425D01*
X99552013Y-105545917D01*
X99574766Y-105594935D01*
X99595734Y-105639938D01*
X99606385Y-105660411D01*
X99617594Y-105679253D01*
X99623512Y-105687996D01*
X99629695Y-105696254D01*
X99636184Y-105703999D01*
X99643023Y-105711206D01*
X99650251Y-105717848D01*
X99657912Y-105723900D01*
X99666047Y-105729334D01*
X99674697Y-105734126D01*
X99704520Y-105743973D01*
X99750000Y-105750000D01*
X99880956Y-105759406D01*
X99962947Y-105767190D01*
X100053624Y-105779965D01*
X100151244Y-105799934D01*
X100254064Y-105829299D01*
X100306880Y-105848194D01*
X100360342Y-105870263D01*
X100414232Y-105895784D01*
X100468334Y-105925030D01*
X100522428Y-105958277D01*
X100576298Y-105995801D01*
X100629725Y-106037876D01*
X100682492Y-106084779D01*
X100734380Y-106136785D01*
X100785173Y-106194168D01*
X100834651Y-106257205D01*
X100882597Y-106326170D01*
X100928794Y-106401339D01*
X100973023Y-106482987D01*
X101015067Y-106571390D01*
X101054708Y-106666822D01*
X101086090Y-106748970D01*
X101112593Y-106827910D01*
X101134467Y-106904007D01*
X101151963Y-106977622D01*
X101165333Y-107049118D01*
X101174827Y-107118858D01*
X101180696Y-107187203D01*
X101183192Y-107254516D01*
X101182564Y-107321161D01*
X101179065Y-107387499D01*
X101172945Y-107453892D01*
X101164454Y-107520704D01*
X101153845Y-107588296D01*
X101141368Y-107657032D01*
X101111812Y-107799383D01*
X101110304Y-107807383D01*
X101109337Y-107815315D01*
X101108897Y-107823168D01*
X101108968Y-107830927D01*
X101109533Y-107838583D01*
X101110578Y-107846121D01*
X101112086Y-107853531D01*
X101114042Y-107860799D01*
X101116431Y-107867914D01*
X101119236Y-107874864D01*
X101122441Y-107881635D01*
X101126032Y-107888217D01*
X101129992Y-107894597D01*
X101134306Y-107900762D01*
X101138958Y-107906701D01*
X101143933Y-107912401D01*
X101149214Y-107917850D01*
X101154786Y-107923036D01*
X101160634Y-107927946D01*
X101166741Y-107932569D01*
X101173092Y-107936893D01*
X101179671Y-107940904D01*
X101186463Y-107944591D01*
X101193452Y-107947942D01*
X101200623Y-107950944D01*
X101207958Y-107953586D01*
X101215444Y-107955855D01*
X101223064Y-107957738D01*
X101230802Y-107959224D01*
X101238643Y-107960301D01*
X101246572Y-107960956D01*
X101254571Y-107961177D01*
X101540091Y-107961177D01*
X101599142Y-107958579D01*
X101656715Y-107952664D01*
X101712783Y-107943569D01*
X101767317Y-107931436D01*
X101820289Y-107916402D01*
X101871672Y-107898608D01*
X101921439Y-107878193D01*
X101969560Y-107855297D01*
X102016008Y-107830059D01*
X102060755Y-107802617D01*
X102103773Y-107773113D01*
X102145035Y-107741684D01*
X102184512Y-107708471D01*
X102222177Y-107673613D01*
X102258002Y-107637249D01*
X102291959Y-107599519D01*
X102324019Y-107560563D01*
X102354156Y-107520518D01*
X102382340Y-107479526D01*
X102408546Y-107437725D01*
X102454905Y-107352255D01*
X102493012Y-107265224D01*
X102522642Y-107177746D01*
X102534209Y-107134189D01*
X102543573Y-107090938D01*
X102550706Y-107048133D01*
X102555581Y-107005914D01*
X102558169Y-106964420D01*
X102558444Y-106923790D01*
X102556581Y-106859845D01*
X102552800Y-106798236D01*
X102547133Y-106738904D01*
X102539614Y-106681786D01*
X102530275Y-106626823D01*
X102519150Y-106573952D01*
X102506272Y-106523113D01*
X102491674Y-106474246D01*
X102475389Y-106427288D01*
X102457450Y-106382179D01*
X102437891Y-106338858D01*
X102416744Y-106297265D01*
X102394042Y-106257337D01*
X102369819Y-106219014D01*
X102344108Y-106182235D01*
X102316942Y-106146939D01*
X102288354Y-106113066D01*
X102258377Y-106080553D01*
X102227044Y-106049340D01*
X102194388Y-106019366D01*
X102125241Y-105962892D01*
X102051201Y-105910642D01*
X101972532Y-105862129D01*
X101889499Y-105816863D01*
X101802368Y-105774358D01*
X101711403Y-105734126D01*
X101621209Y-105692467D01*
X101536355Y-105646221D01*
X101457049Y-105595709D01*
X101383502Y-105541252D01*
X101315921Y-105483170D01*
X101284433Y-105452869D01*
X101254516Y-105421783D01*
X101226195Y-105389951D01*
X101199496Y-105357414D01*
X101174446Y-105324210D01*
X101151071Y-105290381D01*
X101129396Y-105255967D01*
X101109449Y-105221007D01*
X101091255Y-105185541D01*
X101074839Y-105149610D01*
X101060230Y-105113255D01*
X101047452Y-105076513D01*
X101036531Y-105039427D01*
X101027494Y-105002036D01*
X101020368Y-104964380D01*
X101015177Y-104926500D01*
X101011949Y-104888434D01*
X101010709Y-104850224D01*
X101011484Y-104811909D01*
X101014299Y-104773530D01*
X101019181Y-104735127D01*
X101026156Y-104696739D01*
X101041803Y-104634576D01*
X101063891Y-104573292D01*
X101092615Y-104513319D01*
X101128170Y-104455088D01*
X101170752Y-104399032D01*
X101220555Y-104345583D01*
X101277775Y-104295174D01*
X101342607Y-104248235D01*
X101415246Y-104205201D01*
X101495888Y-104166502D01*
X101584727Y-104132571D01*
X101681959Y-104103840D01*
X101787778Y-104080741D01*
X101902381Y-104063707D01*
X102025962Y-104053170D01*
X102158716Y-104049561D01*
X102166635Y-104049700D01*
X102174328Y-104050117D01*
X102181796Y-104050808D01*
X102189034Y-104051773D01*
X102196043Y-104053010D01*
X102202820Y-104054517D01*
X102209364Y-104056293D01*
X102215672Y-104058335D01*
X102221743Y-104060642D01*
X102227575Y-104063212D01*
X102233167Y-104066044D01*
X102238517Y-104069135D01*
X102243623Y-104072484D01*
X102248483Y-104076089D01*
X102253096Y-104079949D01*
X102257459Y-104084062D01*
X102261571Y-104088425D01*
X102265431Y-104093038D01*
X102269036Y-104097898D01*
X102272386Y-104103003D01*
X102275477Y-104108353D01*
X102278308Y-104113945D01*
X102280879Y-104119777D01*
X102283186Y-104125849D01*
X102285228Y-104132157D01*
X102287003Y-104138700D01*
X102288510Y-104145477D01*
X102289747Y-104152486D01*
X102290713Y-104159725D01*
X102291404Y-104167192D01*
X102291820Y-104174885D01*
X102291959Y-104182804D01*
X102291793Y-104189885D01*
X102291300Y-104196847D01*
X102290485Y-104203684D01*
X102289357Y-104210389D01*
X102287922Y-104216954D01*
X102286188Y-104223373D01*
X102284160Y-104229639D01*
X102281847Y-104235744D01*
X102279255Y-104241682D01*
X102276391Y-104247445D01*
X102273263Y-104253028D01*
X102269876Y-104258422D01*
X102266239Y-104263621D01*
X102262357Y-104268618D01*
X102258238Y-104273405D01*
X102253890Y-104277977D01*
X102249318Y-104282325D01*
X102244530Y-104286444D01*
X102239534Y-104290325D01*
X102234335Y-104293963D01*
X102228940Y-104297350D01*
X102223358Y-104300478D01*
X102217594Y-104303342D01*
X102211657Y-104305934D01*
X102205551Y-104308247D01*
X102199286Y-104310274D01*
X102192867Y-104312009D01*
X102186302Y-104313444D01*
X102179597Y-104314572D01*
X102172760Y-104315386D01*
X102165797Y-104315880D01*
X102158716Y-104316046D01*
X102109612Y-104316708D01*
X102062217Y-104318665D01*
X102016512Y-104321873D01*
X101972478Y-104326288D01*
X101930097Y-104331868D01*
X101889348Y-104338568D01*
X101850213Y-104346346D01*
X101812673Y-104355156D01*
X101776708Y-104364957D01*
X101742299Y-104375704D01*
X101709428Y-104387353D01*
X101678074Y-104399862D01*
X101648219Y-104413186D01*
X101619843Y-104427282D01*
X101592928Y-104442107D01*
X101567454Y-104457616D01*
X101543402Y-104473767D01*
X101520752Y-104490515D01*
X101499487Y-104507818D01*
X101479586Y-104525631D01*
X101461030Y-104543912D01*
X101443801Y-104562616D01*
X101427878Y-104581699D01*
X101413243Y-104601119D01*
X101399877Y-104620832D01*
X101387761Y-104640794D01*
X101376875Y-104660962D01*
X101367200Y-104681292D01*
X101358717Y-104701740D01*
X101351406Y-104722263D01*
X101345250Y-104742818D01*
X101340228Y-104763360D01*
X101337409Y-104784208D01*
X101336083Y-104805674D01*
X101336234Y-104827709D01*
X101337848Y-104850261D01*
X101340913Y-104873280D01*
X101345414Y-104896716D01*
X101351337Y-104920518D01*
X101358668Y-104944635D01*
X101377498Y-104993613D01*
X101401793Y-105043247D01*
X101431442Y-105093132D01*
X101466332Y-105142863D01*
X101506353Y-105192036D01*
X101551393Y-105240248D01*
X101601340Y-105287093D01*
X101656083Y-105332168D01*
X101715511Y-105375068D01*
X101779511Y-105415389D01*
X101847973Y-105452726D01*
X101883841Y-105470150D01*
X101920784Y-105486676D01*
X102017446Y-105530415D01*
X102114123Y-105579618D01*
X102209935Y-105634399D01*
X102304005Y-105694867D01*
X102395453Y-105761135D01*
X102483402Y-105833314D01*
X102566974Y-105911516D01*
X102645290Y-105995852D01*
X102717471Y-106086434D01*
X102750987Y-106134102D01*
X102782640Y-106183373D01*
X102812320Y-106234261D01*
X102839918Y-106286781D01*
X102865324Y-106340945D01*
X102888427Y-106396769D01*
X102909119Y-106454265D01*
X102927289Y-106513449D01*
X102942827Y-106574333D01*
X102955625Y-106636932D01*
X102965571Y-106701260D01*
X102972556Y-106767330D01*
X102976471Y-106835158D01*
X102977206Y-106904755D01*
X102975591Y-106983384D01*
X102970753Y-107062121D01*
X102962706Y-107140795D01*
X102951461Y-107219236D01*
X102937030Y-107297272D01*
X102919426Y-107374733D01*
X102898661Y-107451448D01*
X102874746Y-107527247D01*
X102847695Y-107601958D01*
X102817519Y-107675412D01*
X102784231Y-107747436D01*
X102747842Y-107817860D01*
X102708366Y-107886514D01*
X102665814Y-107953226D01*
X102620198Y-108017826D01*
X102571531Y-108080144D01*
X102519824Y-108140008D01*
X102465090Y-108197247D01*
X102407342Y-108251691D01*
X102346591Y-108303169D01*
X102282850Y-108351510D01*
X102216130Y-108396543D01*
X102146444Y-108438099D01*
X102073805Y-108476005D01*
X101998224Y-108510091D01*
X101919713Y-108540186D01*
X101838285Y-108566120D01*
X101753952Y-108587722D01*
X101666727Y-108604820D01*
X101576620Y-108617245D01*
X101483645Y-108624825D01*
X101387814Y-108627389D01*
X97847373Y-108627389D01*
X97847373Y-108541733D01*
X97848064Y-108516085D01*
X97850113Y-108490903D01*
X97853482Y-108466210D01*
X97858136Y-108442025D01*
X97864038Y-108418370D01*
X97871150Y-108395265D01*
X97879438Y-108372733D01*
X97888863Y-108350792D01*
X97899390Y-108329466D01*
X97910981Y-108308773D01*
X97923600Y-108288736D01*
X97937212Y-108269375D01*
X97951778Y-108250711D01*
X97967262Y-108232765D01*
X97983629Y-108215558D01*
X98000840Y-108199110D01*
X98018860Y-108183444D01*
X98037652Y-108168579D01*
X98057180Y-108154536D01*
X98077406Y-108141337D01*
X98098295Y-108129002D01*
X98119809Y-108117553D01*
X98141912Y-108107010D01*
X98164568Y-108097394D01*
X98187739Y-108088726D01*
X98211390Y-108081027D01*
X98235483Y-108074317D01*
X98259982Y-108068619D01*
X98284851Y-108063952D01*
X98310053Y-108060338D01*
X98335551Y-108057797D01*
X98361308Y-108056350D01*
X98381578Y-108051506D01*
X98396208Y-108039010D01*
X98405527Y-108019239D01*
X98409862Y-107992573D01*
X98404889Y-107920067D01*
X98383912Y-107824515D01*
X98349551Y-107708943D01*
X98304428Y-107576377D01*
X98192376Y-107272362D01*
X98068725Y-106936672D01*
X98009103Y-106764513D01*
X97954443Y-106593510D01*
X97907368Y-106426690D01*
X97870497Y-106267077D01*
X97846453Y-106117698D01*
X97837856Y-105981576D01*
X97838620Y-105939492D01*
X97840849Y-105898855D01*
X97844443Y-105859609D01*
X97849307Y-105821697D01*
X97855341Y-105785060D01*
X97862449Y-105749641D01*
X97870532Y-105715382D01*
X97879494Y-105682227D01*
X97889237Y-105650117D01*
X97899663Y-105618996D01*
X97922173Y-105559487D01*
X97946246Y-105503241D01*
X97971098Y-105449796D01*
X98020023Y-105349474D01*
X98042534Y-105301676D01*
X98062703Y-105254840D01*
X98079748Y-105208506D01*
X98086856Y-105185383D01*
X98092890Y-105162214D01*
X98097754Y-105138939D01*
X98101348Y-105115503D01*
X98103576Y-105091847D01*
X98104341Y-105067914D01*
X97723648Y-104487358D01*
X97724442Y-104465829D01*
X97726764Y-104442385D01*
X97735638Y-104390344D01*
X97749558Y-104332420D01*
X97767815Y-104269798D01*
X97789696Y-104203662D01*
X97814490Y-104135199D01*
X97841488Y-104065592D01*
X97869977Y-103996026D01*
X97928587Y-103861762D01*
X97984631Y-103741884D01*
X98032422Y-103645875D01*
X98066272Y-103583213D01*
X98068056Y-103581484D01*
X98069838Y-103579867D01*
X98071617Y-103578361D01*
X98073391Y-103576967D01*
X98075158Y-103575685D01*
X98076916Y-103574514D01*
X98078663Y-103573454D01*
X98080399Y-103572506D01*
X98082120Y-103571669D01*
X98083826Y-103570945D01*
X98085514Y-103570331D01*
X98087184Y-103569829D01*
X98088832Y-103569439D01*
X98090458Y-103569160D01*
X98092059Y-103568993D01*
X98093634Y-103568937D01*
X98095181Y-103568993D01*
X98096699Y-103569160D01*
X98098185Y-103569439D01*
X98099638Y-103569829D01*
X98101056Y-103570331D01*
X98102438Y-103570945D01*
X98103781Y-103571669D01*
X98105084Y-103572506D01*
X98106346Y-103573454D01*
X98107564Y-103574514D01*
X98108736Y-103575685D01*
X98109862Y-103576967D01*
X98110938Y-103578361D01*
X98111964Y-103579867D01*
X98112938Y-103581484D01*
X98113858Y-103583213D01*
X98153712Y-103651470D01*
X98180777Y-103695804D01*
X98211411Y-103743818D01*
X98244721Y-103793170D01*
X98262101Y-103817616D01*
X98279816Y-103841519D01*
X98297754Y-103864585D01*
X98315804Y-103886522D01*
X98333853Y-103907036D01*
X98351791Y-103925836D01*
X98356363Y-103929131D01*
X98361157Y-103931896D01*
X98366171Y-103934159D01*
X98371402Y-103935948D01*
X98376849Y-103937291D01*
X98382511Y-103938216D01*
X98394470Y-103938922D01*
X98407266Y-103938290D01*
X98420884Y-103936543D01*
X98435311Y-103933904D01*
X98450533Y-103930595D01*
X98483305Y-103922862D01*
X98519087Y-103915129D01*
X98538073Y-103911820D01*
X98557770Y-103909181D01*
X98578164Y-103907433D01*
X98599241Y-103906801D01*
X98620425Y-103907324D01*
X98641121Y-103908753D01*
X98661287Y-103910879D01*
X98680882Y-103913493D01*
X98752708Y-103924646D01*
X98768817Y-103926563D01*
X98784104Y-103927713D01*
X98798526Y-103927888D01*
X98805400Y-103927544D01*
X98812042Y-103926877D01*
X98818447Y-103925862D01*
X98824610Y-103924472D01*
X98830526Y-103922681D01*
X98836189Y-103920464D01*
X98841594Y-103917793D01*
X98846735Y-103914643D01*
X98851609Y-103910988D01*
X98856208Y-103906801D01*
X98875715Y-103888106D01*
X98894928Y-103867877D01*
X98913779Y-103846365D01*
X98932198Y-103823822D01*
X98950115Y-103800498D01*
X98967461Y-103776645D01*
X98984165Y-103752512D01*
X99000158Y-103728352D01*
X99029732Y-103680951D01*
X99055626Y-103636450D01*
X99077282Y-103596857D01*
X99094141Y-103564178D01*
X99097708Y-103560725D01*
X99101261Y-103557523D01*
X99104786Y-103554600D01*
X99108269Y-103551984D01*
X99109990Y-103550800D01*
X99111696Y-103549702D01*
X99113384Y-103548696D01*
X99115053Y-103547783D01*
X99116702Y-103546968D01*
X99118327Y-103546254D01*
X99119929Y-103545645D01*
X99121504Y-103545143D01*
X99123051Y-103544754D01*
X99124568Y-103544479D01*
X99126055Y-103544323D01*
X99127508Y-103544288D01*
X99128926Y-103544380D01*
G37*
D11*
X103367166Y-101971666D02*
X104067166Y-102205000D01*
X104067166Y-102205000D02*
X103367166Y-102438333D01*
X103800500Y-102671666D02*
X103800500Y-103205000D01*
X104067166Y-102938333D02*
X103533833Y-102938333D01*
X105940500Y-102438333D02*
X105907166Y-102371666D01*
X105907166Y-102371666D02*
X105907166Y-102271666D01*
X105907166Y-102271666D02*
X105940500Y-102171666D01*
X105940500Y-102171666D02*
X106007166Y-102105000D01*
X106007166Y-102105000D02*
X106073833Y-102071666D01*
X106073833Y-102071666D02*
X106207166Y-102038333D01*
X106207166Y-102038333D02*
X106307166Y-102038333D01*
X106307166Y-102038333D02*
X106440500Y-102071666D01*
X106440500Y-102071666D02*
X106507166Y-102105000D01*
X106507166Y-102105000D02*
X106573833Y-102171666D01*
X106573833Y-102171666D02*
X106607166Y-102271666D01*
X106607166Y-102271666D02*
X106607166Y-102338333D01*
X106607166Y-102338333D02*
X106573833Y-102438333D01*
X106573833Y-102438333D02*
X106540500Y-102471666D01*
X106540500Y-102471666D02*
X106307166Y-102471666D01*
X106307166Y-102471666D02*
X106307166Y-102338333D01*
X106607166Y-102771666D02*
X105907166Y-102771666D01*
X105907166Y-102771666D02*
X106607166Y-103171666D01*
X106607166Y-103171666D02*
X105907166Y-103171666D01*
X106607166Y-103504999D02*
X105907166Y-103504999D01*
X105907166Y-103504999D02*
X105907166Y-103671666D01*
X105907166Y-103671666D02*
X105940500Y-103771666D01*
X105940500Y-103771666D02*
X106007166Y-103838333D01*
X106007166Y-103838333D02*
X106073833Y-103871666D01*
X106073833Y-103871666D02*
X106207166Y-103904999D01*
X106207166Y-103904999D02*
X106307166Y-103904999D01*
X106307166Y-103904999D02*
X106440500Y-103871666D01*
X106440500Y-103871666D02*
X106507166Y-103838333D01*
X106507166Y-103838333D02*
X106573833Y-103771666D01*
X106573833Y-103771666D02*
X106607166Y-103671666D01*
X106607166Y-103671666D02*
X106607166Y-103504999D01*
D12*
X108749998Y-92066071D02*
X108392855Y-93566071D01*
X108392855Y-93566071D02*
X108107141Y-92494642D01*
X108107141Y-92494642D02*
X107821426Y-93566071D01*
X107821426Y-93566071D02*
X107464284Y-92066071D01*
X106964283Y-93494642D02*
X106749998Y-93566071D01*
X106749998Y-93566071D02*
X106392855Y-93566071D01*
X106392855Y-93566071D02*
X106249998Y-93494642D01*
X106249998Y-93494642D02*
X106178569Y-93423214D01*
X106178569Y-93423214D02*
X106107140Y-93280357D01*
X106107140Y-93280357D02*
X106107140Y-93137500D01*
X106107140Y-93137500D02*
X106178569Y-92994642D01*
X106178569Y-92994642D02*
X106249998Y-92923214D01*
X106249998Y-92923214D02*
X106392855Y-92851785D01*
X106392855Y-92851785D02*
X106678569Y-92780357D01*
X106678569Y-92780357D02*
X106821426Y-92708928D01*
X106821426Y-92708928D02*
X106892855Y-92637500D01*
X106892855Y-92637500D02*
X106964283Y-92494642D01*
X106964283Y-92494642D02*
X106964283Y-92351785D01*
X106964283Y-92351785D02*
X106892855Y-92208928D01*
X106892855Y-92208928D02*
X106821426Y-92137500D01*
X106821426Y-92137500D02*
X106678569Y-92066071D01*
X106678569Y-92066071D02*
X106321426Y-92066071D01*
X106321426Y-92066071D02*
X106107140Y-92137500D01*
X105535712Y-92208928D02*
X105464284Y-92137500D01*
X105464284Y-92137500D02*
X105321427Y-92066071D01*
X105321427Y-92066071D02*
X104964284Y-92066071D01*
X104964284Y-92066071D02*
X104821427Y-92137500D01*
X104821427Y-92137500D02*
X104749998Y-92208928D01*
X104749998Y-92208928D02*
X104678569Y-92351785D01*
X104678569Y-92351785D02*
X104678569Y-92494642D01*
X104678569Y-92494642D02*
X104749998Y-92708928D01*
X104749998Y-92708928D02*
X105607141Y-93566071D01*
X105607141Y-93566071D02*
X104678569Y-93566071D01*
X103821427Y-92708928D02*
X103964284Y-92637500D01*
X103964284Y-92637500D02*
X104035713Y-92566071D01*
X104035713Y-92566071D02*
X104107141Y-92423214D01*
X104107141Y-92423214D02*
X104107141Y-92351785D01*
X104107141Y-92351785D02*
X104035713Y-92208928D01*
X104035713Y-92208928D02*
X103964284Y-92137500D01*
X103964284Y-92137500D02*
X103821427Y-92066071D01*
X103821427Y-92066071D02*
X103535713Y-92066071D01*
X103535713Y-92066071D02*
X103392856Y-92137500D01*
X103392856Y-92137500D02*
X103321427Y-92208928D01*
X103321427Y-92208928D02*
X103249998Y-92351785D01*
X103249998Y-92351785D02*
X103249998Y-92423214D01*
X103249998Y-92423214D02*
X103321427Y-92566071D01*
X103321427Y-92566071D02*
X103392856Y-92637500D01*
X103392856Y-92637500D02*
X103535713Y-92708928D01*
X103535713Y-92708928D02*
X103821427Y-92708928D01*
X103821427Y-92708928D02*
X103964284Y-92780357D01*
X103964284Y-92780357D02*
X104035713Y-92851785D01*
X104035713Y-92851785D02*
X104107141Y-92994642D01*
X104107141Y-92994642D02*
X104107141Y-93280357D01*
X104107141Y-93280357D02*
X104035713Y-93423214D01*
X104035713Y-93423214D02*
X103964284Y-93494642D01*
X103964284Y-93494642D02*
X103821427Y-93566071D01*
X103821427Y-93566071D02*
X103535713Y-93566071D01*
X103535713Y-93566071D02*
X103392856Y-93494642D01*
X103392856Y-93494642D02*
X103321427Y-93423214D01*
X103321427Y-93423214D02*
X103249998Y-93280357D01*
X103249998Y-93280357D02*
X103249998Y-92994642D01*
X103249998Y-92994642D02*
X103321427Y-92851785D01*
X103321427Y-92851785D02*
X103392856Y-92780357D01*
X103392856Y-92780357D02*
X103535713Y-92708928D01*
X101821427Y-93566071D02*
X102678570Y-93566071D01*
X102249999Y-93566071D02*
X102249999Y-92066071D01*
X102249999Y-92066071D02*
X102392856Y-92280357D01*
X102392856Y-92280357D02*
X102535713Y-92423214D01*
X102535713Y-92423214D02*
X102678570Y-92494642D01*
X101249999Y-92208928D02*
X101178571Y-92137500D01*
X101178571Y-92137500D02*
X101035714Y-92066071D01*
X101035714Y-92066071D02*
X100678571Y-92066071D01*
X100678571Y-92066071D02*
X100535714Y-92137500D01*
X100535714Y-92137500D02*
X100464285Y-92208928D01*
X100464285Y-92208928D02*
X100392856Y-92351785D01*
X100392856Y-92351785D02*
X100392856Y-92494642D01*
X100392856Y-92494642D02*
X100464285Y-92708928D01*
X100464285Y-92708928D02*
X101321428Y-93566071D01*
X101321428Y-93566071D02*
X100392856Y-93566071D01*
X99250000Y-92780357D02*
X99035714Y-92851785D01*
X99035714Y-92851785D02*
X98964285Y-92923214D01*
X98964285Y-92923214D02*
X98892857Y-93066071D01*
X98892857Y-93066071D02*
X98892857Y-93280357D01*
X98892857Y-93280357D02*
X98964285Y-93423214D01*
X98964285Y-93423214D02*
X99035714Y-93494642D01*
X99035714Y-93494642D02*
X99178571Y-93566071D01*
X99178571Y-93566071D02*
X99750000Y-93566071D01*
X99750000Y-93566071D02*
X99750000Y-92066071D01*
X99750000Y-92066071D02*
X99250000Y-92066071D01*
X99250000Y-92066071D02*
X99107143Y-92137500D01*
X99107143Y-92137500D02*
X99035714Y-92208928D01*
X99035714Y-92208928D02*
X98964285Y-92351785D01*
X98964285Y-92351785D02*
X98964285Y-92494642D01*
X98964285Y-92494642D02*
X99035714Y-92637500D01*
X99035714Y-92637500D02*
X99107143Y-92708928D01*
X99107143Y-92708928D02*
X99250000Y-92780357D01*
X99250000Y-92780357D02*
X99750000Y-92780357D01*
X98250000Y-92994642D02*
X97107143Y-92994642D01*
X96464285Y-92208928D02*
X96392857Y-92137500D01*
X96392857Y-92137500D02*
X96250000Y-92066071D01*
X96250000Y-92066071D02*
X95892857Y-92066071D01*
X95892857Y-92066071D02*
X95750000Y-92137500D01*
X95750000Y-92137500D02*
X95678571Y-92208928D01*
X95678571Y-92208928D02*
X95607142Y-92351785D01*
X95607142Y-92351785D02*
X95607142Y-92494642D01*
X95607142Y-92494642D02*
X95678571Y-92708928D01*
X95678571Y-92708928D02*
X96535714Y-93566071D01*
X96535714Y-93566071D02*
X95607142Y-93566071D01*
X94678571Y-92066071D02*
X94535714Y-92066071D01*
X94535714Y-92066071D02*
X94392857Y-92137500D01*
X94392857Y-92137500D02*
X94321429Y-92208928D01*
X94321429Y-92208928D02*
X94250000Y-92351785D01*
X94250000Y-92351785D02*
X94178571Y-92637500D01*
X94178571Y-92637500D02*
X94178571Y-92994642D01*
X94178571Y-92994642D02*
X94250000Y-93280357D01*
X94250000Y-93280357D02*
X94321429Y-93423214D01*
X94321429Y-93423214D02*
X94392857Y-93494642D01*
X94392857Y-93494642D02*
X94535714Y-93566071D01*
X94535714Y-93566071D02*
X94678571Y-93566071D01*
X94678571Y-93566071D02*
X94821429Y-93494642D01*
X94821429Y-93494642D02*
X94892857Y-93423214D01*
X94892857Y-93423214D02*
X94964286Y-93280357D01*
X94964286Y-93280357D02*
X95035714Y-92994642D01*
X95035714Y-92994642D02*
X95035714Y-92637500D01*
X95035714Y-92637500D02*
X94964286Y-92351785D01*
X94964286Y-92351785D02*
X94892857Y-92208928D01*
X94892857Y-92208928D02*
X94821429Y-92137500D01*
X94821429Y-92137500D02*
X94678571Y-92066071D01*
X93607143Y-92208928D02*
X93535715Y-92137500D01*
X93535715Y-92137500D02*
X93392858Y-92066071D01*
X93392858Y-92066071D02*
X93035715Y-92066071D01*
X93035715Y-92066071D02*
X92892858Y-92137500D01*
X92892858Y-92137500D02*
X92821429Y-92208928D01*
X92821429Y-92208928D02*
X92750000Y-92351785D01*
X92750000Y-92351785D02*
X92750000Y-92494642D01*
X92750000Y-92494642D02*
X92821429Y-92708928D01*
X92821429Y-92708928D02*
X93678572Y-93566071D01*
X93678572Y-93566071D02*
X92750000Y-93566071D01*
X91821429Y-92066071D02*
X91678572Y-92066071D01*
X91678572Y-92066071D02*
X91535715Y-92137500D01*
X91535715Y-92137500D02*
X91464287Y-92208928D01*
X91464287Y-92208928D02*
X91392858Y-92351785D01*
X91392858Y-92351785D02*
X91321429Y-92637500D01*
X91321429Y-92637500D02*
X91321429Y-92994642D01*
X91321429Y-92994642D02*
X91392858Y-93280357D01*
X91392858Y-93280357D02*
X91464287Y-93423214D01*
X91464287Y-93423214D02*
X91535715Y-93494642D01*
X91535715Y-93494642D02*
X91678572Y-93566071D01*
X91678572Y-93566071D02*
X91821429Y-93566071D01*
X91821429Y-93566071D02*
X91964287Y-93494642D01*
X91964287Y-93494642D02*
X92035715Y-93423214D01*
X92035715Y-93423214D02*
X92107144Y-93280357D01*
X92107144Y-93280357D02*
X92178572Y-92994642D01*
X92178572Y-92994642D02*
X92178572Y-92637500D01*
X92178572Y-92637500D02*
X92107144Y-92351785D01*
X92107144Y-92351785D02*
X92035715Y-92208928D01*
X92035715Y-92208928D02*
X91964287Y-92137500D01*
X91964287Y-92137500D02*
X91821429Y-92066071D01*
D11*
X91367166Y-102071666D02*
X90667166Y-102071666D01*
X90667166Y-102071666D02*
X90667166Y-102238333D01*
X90667166Y-102238333D02*
X90700500Y-102338333D01*
X90700500Y-102338333D02*
X90767166Y-102405000D01*
X90767166Y-102405000D02*
X90833833Y-102438333D01*
X90833833Y-102438333D02*
X90967166Y-102471666D01*
X90967166Y-102471666D02*
X91067166Y-102471666D01*
X91067166Y-102471666D02*
X91200500Y-102438333D01*
X91200500Y-102438333D02*
X91267166Y-102405000D01*
X91267166Y-102405000D02*
X91333833Y-102338333D01*
X91333833Y-102338333D02*
X91367166Y-102238333D01*
X91367166Y-102238333D02*
X91367166Y-102071666D01*
X91367166Y-102771666D02*
X90667166Y-102771666D01*
X91367166Y-103104999D02*
X90667166Y-103104999D01*
X90667166Y-103104999D02*
X91367166Y-103504999D01*
X91367166Y-103504999D02*
X90667166Y-103504999D01*
X93207166Y-101971666D02*
X93907166Y-102205000D01*
X93907166Y-102205000D02*
X93207166Y-102438333D01*
X93640500Y-102671666D02*
X93640500Y-103205000D01*
X93907166Y-102938333D02*
X93373833Y-102938333D01*
X95780500Y-102438333D02*
X95747166Y-102371666D01*
X95747166Y-102371666D02*
X95747166Y-102271666D01*
X95747166Y-102271666D02*
X95780500Y-102171666D01*
X95780500Y-102171666D02*
X95847166Y-102105000D01*
X95847166Y-102105000D02*
X95913833Y-102071666D01*
X95913833Y-102071666D02*
X96047166Y-102038333D01*
X96047166Y-102038333D02*
X96147166Y-102038333D01*
X96147166Y-102038333D02*
X96280500Y-102071666D01*
X96280500Y-102071666D02*
X96347166Y-102105000D01*
X96347166Y-102105000D02*
X96413833Y-102171666D01*
X96413833Y-102171666D02*
X96447166Y-102271666D01*
X96447166Y-102271666D02*
X96447166Y-102338333D01*
X96447166Y-102338333D02*
X96413833Y-102438333D01*
X96413833Y-102438333D02*
X96380500Y-102471666D01*
X96380500Y-102471666D02*
X96147166Y-102471666D01*
X96147166Y-102471666D02*
X96147166Y-102338333D01*
X96447166Y-102771666D02*
X95747166Y-102771666D01*
X95747166Y-102771666D02*
X96447166Y-103171666D01*
X96447166Y-103171666D02*
X95747166Y-103171666D01*
X96447166Y-103504999D02*
X95747166Y-103504999D01*
X95747166Y-103504999D02*
X95747166Y-103671666D01*
X95747166Y-103671666D02*
X95780500Y-103771666D01*
X95780500Y-103771666D02*
X95847166Y-103838333D01*
X95847166Y-103838333D02*
X95913833Y-103871666D01*
X95913833Y-103871666D02*
X96047166Y-103904999D01*
X96047166Y-103904999D02*
X96147166Y-103904999D01*
X96147166Y-103904999D02*
X96280500Y-103871666D01*
X96280500Y-103871666D02*
X96347166Y-103838333D01*
X96347166Y-103838333D02*
X96413833Y-103771666D01*
X96413833Y-103771666D02*
X96447166Y-103671666D01*
X96447166Y-103671666D02*
X96447166Y-103504999D01*
X109147166Y-102071666D02*
X108447166Y-102071666D01*
X108447166Y-102071666D02*
X108447166Y-102238333D01*
X108447166Y-102238333D02*
X108480500Y-102338333D01*
X108480500Y-102338333D02*
X108547166Y-102405000D01*
X108547166Y-102405000D02*
X108613833Y-102438333D01*
X108613833Y-102438333D02*
X108747166Y-102471666D01*
X108747166Y-102471666D02*
X108847166Y-102471666D01*
X108847166Y-102471666D02*
X108980500Y-102438333D01*
X108980500Y-102438333D02*
X109047166Y-102405000D01*
X109047166Y-102405000D02*
X109113833Y-102338333D01*
X109113833Y-102338333D02*
X109147166Y-102238333D01*
X109147166Y-102238333D02*
X109147166Y-102071666D01*
X108447166Y-102905000D02*
X108447166Y-103038333D01*
X108447166Y-103038333D02*
X108480500Y-103105000D01*
X108480500Y-103105000D02*
X108547166Y-103171666D01*
X108547166Y-103171666D02*
X108680500Y-103205000D01*
X108680500Y-103205000D02*
X108913833Y-103205000D01*
X108913833Y-103205000D02*
X109047166Y-103171666D01*
X109047166Y-103171666D02*
X109113833Y-103105000D01*
X109113833Y-103105000D02*
X109147166Y-103038333D01*
X109147166Y-103038333D02*
X109147166Y-102905000D01*
X109147166Y-102905000D02*
X109113833Y-102838333D01*
X109113833Y-102838333D02*
X109047166Y-102771666D01*
X109047166Y-102771666D02*
X108913833Y-102738333D01*
X108913833Y-102738333D02*
X108680500Y-102738333D01*
X108680500Y-102738333D02*
X108547166Y-102771666D01*
X108547166Y-102771666D02*
X108480500Y-102838333D01*
X108480500Y-102838333D02*
X108447166Y-102905000D01*
X108447166Y-103504999D02*
X109013833Y-103504999D01*
X109013833Y-103504999D02*
X109080500Y-103538333D01*
X109080500Y-103538333D02*
X109113833Y-103571666D01*
X109113833Y-103571666D02*
X109147166Y-103638333D01*
X109147166Y-103638333D02*
X109147166Y-103771666D01*
X109147166Y-103771666D02*
X109113833Y-103838333D01*
X109113833Y-103838333D02*
X109080500Y-103871666D01*
X109080500Y-103871666D02*
X109013833Y-103904999D01*
X109013833Y-103904999D02*
X108447166Y-103904999D01*
X108447166Y-104138332D02*
X108447166Y-104538332D01*
X109147166Y-104338332D02*
X108447166Y-104338332D01*
D13*
%TO.C,J1*%
X89202619Y-100583333D02*
X88488333Y-100583333D01*
X88488333Y-100583333D02*
X88345476Y-100630952D01*
X88345476Y-100630952D02*
X88250238Y-100726190D01*
X88250238Y-100726190D02*
X88202619Y-100869047D01*
X88202619Y-100869047D02*
X88202619Y-100964285D01*
X88202619Y-99583333D02*
X88202619Y-100154761D01*
X88202619Y-99869047D02*
X89202619Y-99869047D01*
X89202619Y-99869047D02*
X89059761Y-99964285D01*
X89059761Y-99964285D02*
X88964523Y-100059523D01*
X88964523Y-100059523D02*
X88916904Y-100154761D01*
%TO.C,J2*%
X101902619Y-100583333D02*
X101188333Y-100583333D01*
X101188333Y-100583333D02*
X101045476Y-100630952D01*
X101045476Y-100630952D02*
X100950238Y-100726190D01*
X100950238Y-100726190D02*
X100902619Y-100869047D01*
X100902619Y-100869047D02*
X100902619Y-100964285D01*
X101807380Y-100154761D02*
X101855000Y-100107142D01*
X101855000Y-100107142D02*
X101902619Y-100011904D01*
X101902619Y-100011904D02*
X101902619Y-99773809D01*
X101902619Y-99773809D02*
X101855000Y-99678571D01*
X101855000Y-99678571D02*
X101807380Y-99630952D01*
X101807380Y-99630952D02*
X101712142Y-99583333D01*
X101712142Y-99583333D02*
X101616904Y-99583333D01*
X101616904Y-99583333D02*
X101474047Y-99630952D01*
X101474047Y-99630952D02*
X100902619Y-100202380D01*
X100902619Y-100202380D02*
X100902619Y-99583333D01*
D14*
%TO.C,J1*%
X97460000Y-101500000D02*
X97460000Y-99000000D01*
X97460000Y-99000000D02*
X97150000Y-99000000D01*
X95400000Y-99000000D02*
X94400000Y-99000000D01*
X92900000Y-99000000D02*
X91900000Y-99000000D01*
X89840000Y-101500000D02*
X97460000Y-101500000D01*
X89840000Y-99000000D02*
X90150000Y-99000000D01*
X89840000Y-99000000D02*
X89840000Y-101500000D01*
%TO.C,J2*%
X110160000Y-101500000D02*
X110160000Y-99000000D01*
X110160000Y-99000000D02*
X109850000Y-99000000D01*
X108100000Y-99000000D02*
X107100000Y-99000000D01*
X105600000Y-99000000D02*
X104600000Y-99000000D01*
X102540000Y-101500000D02*
X110160000Y-101500000D01*
X102540000Y-99000000D02*
X102850000Y-99000000D01*
X102540000Y-99000000D02*
X102540000Y-101500000D01*
%TD*%
M02*
