%TF.GenerationSoftware,KiCad,Pcbnew,(7.0.0)*%
%TF.CreationDate,2023-08-02T11:45:39+02:00*%
%TF.ProjectId,WS2812B-2020_8x8,57533238-3132-4422-9d32-3032305f3878,rev?*%
%TF.SameCoordinates,Original*%
%TF.FileFunction,Soldermask,Top*%
%TF.FilePolarity,Negative*%
%FSLAX46Y46*%
G04 Gerber Fmt 4.6, Leading zero omitted, Abs format (unit mm)*
G04 Created by KiCad (PCBNEW (7.0.0)) date 2023-08-02 11:45:39*
%MOMM*%
%LPD*%
G01*
G04 APERTURE LIST*
%ADD10R,0.700000X0.700000*%
G04 APERTURE END LIST*
D10*
%TO.C,D11*%
X93049999Y-103594999D03*
X91949999Y-103594999D03*
X91949999Y-105424999D03*
X93049999Y-105424999D03*
%TD*%
%TO.C,D33*%
X102049999Y-109594999D03*
X100949999Y-109594999D03*
X100949999Y-111424999D03*
X102049999Y-111424999D03*
%TD*%
%TO.C,D39*%
X102049999Y-91594999D03*
X100949999Y-91594999D03*
X100949999Y-93424999D03*
X102049999Y-93424999D03*
%TD*%
%TO.C,D26*%
X99049999Y-106594999D03*
X97949999Y-106594999D03*
X97949999Y-108424999D03*
X99049999Y-108424999D03*
%TD*%
%TO.C,D53*%
X108049999Y-97594999D03*
X106949999Y-97594999D03*
X106949999Y-99424999D03*
X108049999Y-99424999D03*
%TD*%
%TO.C,D50*%
X108049999Y-106594999D03*
X106949999Y-106594999D03*
X106949999Y-108424999D03*
X108049999Y-108424999D03*
%TD*%
%TO.C,D20*%
X96049999Y-100594998D03*
X94949999Y-100594998D03*
X94949999Y-102424998D03*
X96049999Y-102424998D03*
%TD*%
%TO.C,D46*%
X105049999Y-94594999D03*
X103949999Y-94594999D03*
X103949999Y-96424999D03*
X105049999Y-96424999D03*
%TD*%
%TO.C,D16*%
X93049999Y-88594998D03*
X91949999Y-88594998D03*
X91949999Y-90424998D03*
X93049999Y-90424998D03*
%TD*%
%TO.C,D35*%
X102049999Y-103594999D03*
X100949999Y-103594999D03*
X100949999Y-105424999D03*
X102049999Y-105424999D03*
%TD*%
%TO.C,D60*%
X111049999Y-100594999D03*
X109949999Y-100594999D03*
X109949999Y-102424999D03*
X111049999Y-102424999D03*
%TD*%
%TO.C,D14*%
X93049999Y-94594999D03*
X91949999Y-94594999D03*
X91949999Y-96424999D03*
X93049999Y-96424999D03*
%TD*%
%TO.C,D18*%
X96049999Y-106594999D03*
X94949999Y-106594999D03*
X94949999Y-108424999D03*
X96049999Y-108424999D03*
%TD*%
%TO.C,D51*%
X108050000Y-103594999D03*
X106950000Y-103594999D03*
X106950000Y-105424999D03*
X108050000Y-105424999D03*
%TD*%
%TO.C,D42*%
X105049999Y-106594999D03*
X103949999Y-106594999D03*
X103949999Y-108424999D03*
X105049999Y-108424999D03*
%TD*%
%TO.C,D13*%
X93049999Y-97594998D03*
X91949999Y-97594998D03*
X91949999Y-99424998D03*
X93049999Y-99424998D03*
%TD*%
%TO.C,D37*%
X102049999Y-97594998D03*
X100949999Y-97594998D03*
X100949999Y-99424998D03*
X102049999Y-99424998D03*
%TD*%
%TO.C,D17*%
X96049999Y-109594998D03*
X94949999Y-109594998D03*
X94949999Y-111424998D03*
X96049999Y-111424998D03*
%TD*%
%TO.C,D23*%
X96049999Y-91594998D03*
X94949999Y-91594998D03*
X94949999Y-93424998D03*
X96049999Y-93424998D03*
%TD*%
%TO.C,D19*%
X96049999Y-103594999D03*
X94949999Y-103594999D03*
X94949999Y-105424999D03*
X96049999Y-105424999D03*
%TD*%
%TO.C,D47*%
X105049999Y-91594998D03*
X103949999Y-91594998D03*
X103949999Y-93424998D03*
X105049999Y-93424998D03*
%TD*%
%TO.C,D12*%
X93049999Y-100594999D03*
X91949999Y-100594999D03*
X91949999Y-102424999D03*
X93049999Y-102424999D03*
%TD*%
%TO.C,D43*%
X105049999Y-103594999D03*
X103949999Y-103594999D03*
X103949999Y-105424999D03*
X105049999Y-105424999D03*
%TD*%
%TO.C,D7*%
X90049999Y-91594998D03*
X88949999Y-91594998D03*
X88949999Y-93424998D03*
X90049999Y-93424998D03*
%TD*%
%TO.C,D44*%
X105049999Y-100594998D03*
X103949999Y-100594998D03*
X103949999Y-102424998D03*
X105049999Y-102424998D03*
%TD*%
%TO.C,D63*%
X111049999Y-91594999D03*
X109949999Y-91594999D03*
X109949999Y-93424999D03*
X111049999Y-93424999D03*
%TD*%
%TO.C,D29*%
X99049999Y-97594999D03*
X97949999Y-97594999D03*
X97949999Y-99424999D03*
X99049999Y-99424999D03*
%TD*%
%TO.C,D56*%
X108049999Y-88594999D03*
X106949999Y-88594999D03*
X106949999Y-90424999D03*
X108049999Y-90424999D03*
%TD*%
%TO.C,D3*%
X90050000Y-103594999D03*
X88950000Y-103594999D03*
X88950000Y-105424999D03*
X90050000Y-105424999D03*
%TD*%
%TO.C,D15*%
X93049999Y-91594999D03*
X91949999Y-91594999D03*
X91949999Y-93424999D03*
X93049999Y-93424999D03*
%TD*%
%TO.C,D6*%
X90050000Y-94594999D03*
X88950000Y-94594999D03*
X88950000Y-96424999D03*
X90050000Y-96424999D03*
%TD*%
%TO.C,D5*%
X90049999Y-97594999D03*
X88949999Y-97594999D03*
X88949999Y-99424999D03*
X90049999Y-99424999D03*
%TD*%
%TO.C,D52*%
X108049999Y-100594998D03*
X106949999Y-100594998D03*
X106949999Y-102424998D03*
X108049999Y-102424998D03*
%TD*%
%TO.C,D45*%
X105049999Y-97594999D03*
X103949999Y-97594999D03*
X103949999Y-99424999D03*
X105049999Y-99424999D03*
%TD*%
%TO.C,D21*%
X96049999Y-97594999D03*
X94949999Y-97594999D03*
X94949999Y-99424999D03*
X96049999Y-99424999D03*
%TD*%
%TO.C,D57*%
X111049999Y-109594999D03*
X109949999Y-109594999D03*
X109949999Y-111424999D03*
X111049999Y-111424999D03*
%TD*%
%TO.C,D10*%
X93049999Y-106594998D03*
X91949999Y-106594998D03*
X91949999Y-108424998D03*
X93049999Y-108424998D03*
%TD*%
%TO.C,D36*%
X102049999Y-100594999D03*
X100949999Y-100594999D03*
X100949999Y-102424999D03*
X102049999Y-102424999D03*
%TD*%
%TO.C,D2*%
X90049999Y-106594999D03*
X88949999Y-106594999D03*
X88949999Y-108424999D03*
X90049999Y-108424999D03*
%TD*%
%TO.C,D32*%
X99049999Y-88594999D03*
X97949999Y-88594999D03*
X97949999Y-90424999D03*
X99049999Y-90424999D03*
%TD*%
%TO.C,D64*%
X111049999Y-88594998D03*
X109949999Y-88594998D03*
X109949999Y-90424998D03*
X111049999Y-90424998D03*
%TD*%
%TO.C,D54*%
X108050000Y-94594999D03*
X106950000Y-94594999D03*
X106950000Y-96424999D03*
X108050000Y-96424999D03*
%TD*%
%TO.C,D41*%
X105049999Y-109594998D03*
X103949999Y-109594998D03*
X103949999Y-111424998D03*
X105049999Y-111424998D03*
%TD*%
%TO.C,D28*%
X99049999Y-100594998D03*
X97949999Y-100594998D03*
X97949999Y-102424998D03*
X99049999Y-102424998D03*
%TD*%
%TO.C,D40*%
X102049999Y-88594998D03*
X100949999Y-88594998D03*
X100949999Y-90424998D03*
X102049999Y-90424998D03*
%TD*%
%TO.C,D9*%
X93049999Y-109594999D03*
X91949999Y-109594999D03*
X91949999Y-111424999D03*
X93049999Y-111424999D03*
%TD*%
%TO.C,D59*%
X111049999Y-103594999D03*
X109949999Y-103594999D03*
X109949999Y-105424999D03*
X111049999Y-105424999D03*
%TD*%
%TO.C,D4*%
X90049999Y-100594998D03*
X88949999Y-100594998D03*
X88949999Y-102424998D03*
X90049999Y-102424998D03*
%TD*%
%TO.C,D25*%
X99049999Y-109594998D03*
X97949999Y-109594998D03*
X97949999Y-111424998D03*
X99049999Y-111424998D03*
%TD*%
%TO.C,D62*%
X111049999Y-94594999D03*
X109949999Y-94594999D03*
X109949999Y-96424999D03*
X111049999Y-96424999D03*
%TD*%
%TO.C,D8*%
X90049999Y-88594999D03*
X88949999Y-88594999D03*
X88949999Y-90424999D03*
X90049999Y-90424999D03*
%TD*%
%TO.C,D61*%
X111049999Y-97594998D03*
X109949999Y-97594998D03*
X109949999Y-99424998D03*
X111049999Y-99424998D03*
%TD*%
%TO.C,D30*%
X99050000Y-94594999D03*
X97950000Y-94594999D03*
X97950000Y-96424999D03*
X99050000Y-96424999D03*
%TD*%
%TO.C,D58*%
X111050000Y-106594999D03*
X109950000Y-106594999D03*
X109950000Y-108424999D03*
X111050000Y-108424999D03*
%TD*%
%TO.C,D34*%
X102049999Y-106594998D03*
X100949999Y-106594998D03*
X100949999Y-108424998D03*
X102049999Y-108424998D03*
%TD*%
%TO.C,D24*%
X96049999Y-88594999D03*
X94949999Y-88594999D03*
X94949999Y-90424999D03*
X96049999Y-90424999D03*
%TD*%
%TO.C,D55*%
X108049999Y-91594998D03*
X106949999Y-91594998D03*
X106949999Y-93424998D03*
X108049999Y-93424998D03*
%TD*%
%TO.C,D27*%
X99050000Y-103594999D03*
X97950000Y-103594999D03*
X97950000Y-105424999D03*
X99050000Y-105424999D03*
%TD*%
%TO.C,D38*%
X102049999Y-94594999D03*
X100949999Y-94594999D03*
X100949999Y-96424999D03*
X102049999Y-96424999D03*
%TD*%
%TO.C,D1*%
X90049999Y-109594998D03*
X88949999Y-109594998D03*
X88949999Y-111424998D03*
X90049999Y-111424998D03*
%TD*%
%TO.C,D31*%
X99049999Y-91594998D03*
X97949999Y-91594998D03*
X97949999Y-93424998D03*
X99049999Y-93424998D03*
%TD*%
%TO.C,D22*%
X96049999Y-94594999D03*
X94949999Y-94594999D03*
X94949999Y-96424999D03*
X96049999Y-96424999D03*
%TD*%
%TO.C,D49*%
X108050000Y-109594999D03*
X106950000Y-109594999D03*
X106950000Y-111424999D03*
X108050000Y-111424999D03*
%TD*%
%TO.C,D48*%
X105049999Y-88594999D03*
X103949999Y-88594999D03*
X103949999Y-90424999D03*
X105049999Y-90424999D03*
%TD*%
M02*
