%TF.GenerationSoftware,KiCad,Pcbnew,(7.0.0)*%
%TF.CreationDate,2023-08-02T11:45:39+02:00*%
%TF.ProjectId,WS2812B-2020_8x8,57533238-3132-4422-9d32-3032305f3878,rev?*%
%TF.SameCoordinates,Original*%
%TF.FileFunction,Copper,L1,Top*%
%TF.FilePolarity,Positive*%
%FSLAX46Y46*%
G04 Gerber Fmt 4.6, Leading zero omitted, Abs format (unit mm)*
G04 Created by KiCad (PCBNEW (7.0.0)) date 2023-08-02 11:45:39*
%MOMM*%
%LPD*%
G01*
G04 APERTURE LIST*
%TA.AperFunction,SMDPad,CuDef*%
%ADD10R,0.700000X0.700000*%
%TD*%
%TA.AperFunction,ViaPad*%
%ADD11C,1.000000*%
%TD*%
%TA.AperFunction,Conductor*%
%ADD12C,0.300000*%
%TD*%
%TA.AperFunction,Conductor*%
%ADD13C,0.350000*%
%TD*%
G04 APERTURE END LIST*
D10*
%TO.P,D11,1,DOUT*%
%TO.N,Net-(D11-DOUT)*%
X93049999Y-103594999D03*
%TO.P,D11,2,GND*%
%TO.N,GND*%
X91949999Y-103594999D03*
%TO.P,D11,3,DIN*%
%TO.N,Net-(D10-DOUT)*%
X91949999Y-105424999D03*
%TO.P,D11,4,VDD*%
%TO.N,V+*%
X93049999Y-105424999D03*
%TD*%
%TO.P,D33,1,DOUT*%
%TO.N,Net-(D33-DOUT)*%
X102049999Y-109594999D03*
%TO.P,D33,2,GND*%
%TO.N,GND*%
X100949999Y-109594999D03*
%TO.P,D33,3,DIN*%
%TO.N,/x8_4/DOUT*%
X100949999Y-111424999D03*
%TO.P,D33,4,VDD*%
%TO.N,V+*%
X102049999Y-111424999D03*
%TD*%
%TO.P,D39,1,DOUT*%
%TO.N,Net-(D39-DOUT)*%
X102049999Y-91594999D03*
%TO.P,D39,2,GND*%
%TO.N,GND*%
X100949999Y-91594999D03*
%TO.P,D39,3,DIN*%
%TO.N,Net-(D38-DOUT)*%
X100949999Y-93424999D03*
%TO.P,D39,4,VDD*%
%TO.N,V+*%
X102049999Y-93424999D03*
%TD*%
%TO.P,D26,1,DOUT*%
%TO.N,Net-(D26-DOUT)*%
X99049999Y-106594999D03*
%TO.P,D26,2,GND*%
%TO.N,GND*%
X97949999Y-106594999D03*
%TO.P,D26,3,DIN*%
%TO.N,Net-(D25-DOUT)*%
X97949999Y-108424999D03*
%TO.P,D26,4,VDD*%
%TO.N,V+*%
X99049999Y-108424999D03*
%TD*%
%TO.P,D53,1,DOUT*%
%TO.N,Net-(D53-DOUT)*%
X108049999Y-97594999D03*
%TO.P,D53,2,GND*%
%TO.N,GND*%
X106949999Y-97594999D03*
%TO.P,D53,3,DIN*%
%TO.N,Net-(D52-DOUT)*%
X106949999Y-99424999D03*
%TO.P,D53,4,VDD*%
%TO.N,V+*%
X108049999Y-99424999D03*
%TD*%
%TO.P,D50,1,DOUT*%
%TO.N,Net-(D50-DOUT)*%
X108049999Y-106594999D03*
%TO.P,D50,2,GND*%
%TO.N,GND*%
X106949999Y-106594999D03*
%TO.P,D50,3,DIN*%
%TO.N,Net-(D49-DOUT)*%
X106949999Y-108424999D03*
%TO.P,D50,4,VDD*%
%TO.N,V+*%
X108049999Y-108424999D03*
%TD*%
%TO.P,D20,1,DOUT*%
%TO.N,Net-(D20-DOUT)*%
X96049999Y-100594998D03*
%TO.P,D20,2,GND*%
%TO.N,GND*%
X94949999Y-100594998D03*
%TO.P,D20,3,DIN*%
%TO.N,Net-(D19-DOUT)*%
X94949999Y-102424998D03*
%TO.P,D20,4,VDD*%
%TO.N,V+*%
X96049999Y-102424998D03*
%TD*%
%TO.P,D46,1,DOUT*%
%TO.N,Net-(D46-DOUT)*%
X105049999Y-94594999D03*
%TO.P,D46,2,GND*%
%TO.N,GND*%
X103949999Y-94594999D03*
%TO.P,D46,3,DIN*%
%TO.N,Net-(D45-DOUT)*%
X103949999Y-96424999D03*
%TO.P,D46,4,VDD*%
%TO.N,V+*%
X105049999Y-96424999D03*
%TD*%
%TO.P,D16,1,DOUT*%
%TO.N,/x8_2/DOUT*%
X93049999Y-88594998D03*
%TO.P,D16,2,GND*%
%TO.N,GND*%
X91949999Y-88594998D03*
%TO.P,D16,3,DIN*%
%TO.N,Net-(D15-DOUT)*%
X91949999Y-90424998D03*
%TO.P,D16,4,VDD*%
%TO.N,V+*%
X93049999Y-90424998D03*
%TD*%
%TO.P,D35,1,DOUT*%
%TO.N,Net-(D35-DOUT)*%
X102049999Y-103594999D03*
%TO.P,D35,2,GND*%
%TO.N,GND*%
X100949999Y-103594999D03*
%TO.P,D35,3,DIN*%
%TO.N,Net-(D34-DOUT)*%
X100949999Y-105424999D03*
%TO.P,D35,4,VDD*%
%TO.N,V+*%
X102049999Y-105424999D03*
%TD*%
%TO.P,D60,1,DOUT*%
%TO.N,Net-(D60-DOUT)*%
X111049999Y-100594999D03*
%TO.P,D60,2,GND*%
%TO.N,GND*%
X109949999Y-100594999D03*
%TO.P,D60,3,DIN*%
%TO.N,Net-(D59-DOUT)*%
X109949999Y-102424999D03*
%TO.P,D60,4,VDD*%
%TO.N,V+*%
X111049999Y-102424999D03*
%TD*%
%TO.P,D14,1,DOUT*%
%TO.N,Net-(D14-DOUT)*%
X93049999Y-94594999D03*
%TO.P,D14,2,GND*%
%TO.N,GND*%
X91949999Y-94594999D03*
%TO.P,D14,3,DIN*%
%TO.N,Net-(D13-DOUT)*%
X91949999Y-96424999D03*
%TO.P,D14,4,VDD*%
%TO.N,V+*%
X93049999Y-96424999D03*
%TD*%
%TO.P,D18,1,DOUT*%
%TO.N,Net-(D18-DOUT)*%
X96049999Y-106594999D03*
%TO.P,D18,2,GND*%
%TO.N,GND*%
X94949999Y-106594999D03*
%TO.P,D18,3,DIN*%
%TO.N,Net-(D17-DOUT)*%
X94949999Y-108424999D03*
%TO.P,D18,4,VDD*%
%TO.N,V+*%
X96049999Y-108424999D03*
%TD*%
%TO.P,D51,1,DOUT*%
%TO.N,Net-(D51-DOUT)*%
X108050000Y-103594999D03*
%TO.P,D51,2,GND*%
%TO.N,GND*%
X106950000Y-103594999D03*
%TO.P,D51,3,DIN*%
%TO.N,Net-(D50-DOUT)*%
X106950000Y-105424999D03*
%TO.P,D51,4,VDD*%
%TO.N,V+*%
X108050000Y-105424999D03*
%TD*%
%TO.P,D42,1,DOUT*%
%TO.N,Net-(D42-DOUT)*%
X105049999Y-106594999D03*
%TO.P,D42,2,GND*%
%TO.N,GND*%
X103949999Y-106594999D03*
%TO.P,D42,3,DIN*%
%TO.N,Net-(D41-DOUT)*%
X103949999Y-108424999D03*
%TO.P,D42,4,VDD*%
%TO.N,V+*%
X105049999Y-108424999D03*
%TD*%
%TO.P,D13,1,DOUT*%
%TO.N,Net-(D13-DOUT)*%
X93049999Y-97594998D03*
%TO.P,D13,2,GND*%
%TO.N,GND*%
X91949999Y-97594998D03*
%TO.P,D13,3,DIN*%
%TO.N,Net-(D12-DOUT)*%
X91949999Y-99424998D03*
%TO.P,D13,4,VDD*%
%TO.N,V+*%
X93049999Y-99424998D03*
%TD*%
%TO.P,D37,1,DOUT*%
%TO.N,Net-(D37-DOUT)*%
X102049999Y-97594998D03*
%TO.P,D37,2,GND*%
%TO.N,GND*%
X100949999Y-97594998D03*
%TO.P,D37,3,DIN*%
%TO.N,Net-(D36-DOUT)*%
X100949999Y-99424998D03*
%TO.P,D37,4,VDD*%
%TO.N,V+*%
X102049999Y-99424998D03*
%TD*%
%TO.P,D17,1,DOUT*%
%TO.N,Net-(D17-DOUT)*%
X96049999Y-109594998D03*
%TO.P,D17,2,GND*%
%TO.N,GND*%
X94949999Y-109594998D03*
%TO.P,D17,3,DIN*%
%TO.N,/x8_2/DOUT*%
X94949999Y-111424998D03*
%TO.P,D17,4,VDD*%
%TO.N,V+*%
X96049999Y-111424998D03*
%TD*%
%TO.P,D23,1,DOUT*%
%TO.N,Net-(D23-DOUT)*%
X96049999Y-91594998D03*
%TO.P,D23,2,GND*%
%TO.N,GND*%
X94949999Y-91594998D03*
%TO.P,D23,3,DIN*%
%TO.N,Net-(D22-DOUT)*%
X94949999Y-93424998D03*
%TO.P,D23,4,VDD*%
%TO.N,V+*%
X96049999Y-93424998D03*
%TD*%
%TO.P,D19,1,DOUT*%
%TO.N,Net-(D19-DOUT)*%
X96049999Y-103594999D03*
%TO.P,D19,2,GND*%
%TO.N,GND*%
X94949999Y-103594999D03*
%TO.P,D19,3,DIN*%
%TO.N,Net-(D18-DOUT)*%
X94949999Y-105424999D03*
%TO.P,D19,4,VDD*%
%TO.N,V+*%
X96049999Y-105424999D03*
%TD*%
%TO.P,D47,1,DOUT*%
%TO.N,Net-(D47-DOUT)*%
X105049999Y-91594998D03*
%TO.P,D47,2,GND*%
%TO.N,GND*%
X103949999Y-91594998D03*
%TO.P,D47,3,DIN*%
%TO.N,Net-(D46-DOUT)*%
X103949999Y-93424998D03*
%TO.P,D47,4,VDD*%
%TO.N,V+*%
X105049999Y-93424998D03*
%TD*%
%TO.P,D12,1,DOUT*%
%TO.N,Net-(D12-DOUT)*%
X93049999Y-100594999D03*
%TO.P,D12,2,GND*%
%TO.N,GND*%
X91949999Y-100594999D03*
%TO.P,D12,3,DIN*%
%TO.N,Net-(D11-DOUT)*%
X91949999Y-102424999D03*
%TO.P,D12,4,VDD*%
%TO.N,V+*%
X93049999Y-102424999D03*
%TD*%
%TO.P,D43,1,DOUT*%
%TO.N,Net-(D43-DOUT)*%
X105049999Y-103594999D03*
%TO.P,D43,2,GND*%
%TO.N,GND*%
X103949999Y-103594999D03*
%TO.P,D43,3,DIN*%
%TO.N,Net-(D42-DOUT)*%
X103949999Y-105424999D03*
%TO.P,D43,4,VDD*%
%TO.N,V+*%
X105049999Y-105424999D03*
%TD*%
%TO.P,D7,1,DOUT*%
%TO.N,Net-(D7-DOUT)*%
X90049999Y-91594998D03*
%TO.P,D7,2,GND*%
%TO.N,GND*%
X88949999Y-91594998D03*
%TO.P,D7,3,DIN*%
%TO.N,Net-(D6-DOUT)*%
X88949999Y-93424998D03*
%TO.P,D7,4,VDD*%
%TO.N,V+*%
X90049999Y-93424998D03*
%TD*%
%TO.P,D44,1,DOUT*%
%TO.N,Net-(D44-DOUT)*%
X105049999Y-100594998D03*
%TO.P,D44,2,GND*%
%TO.N,GND*%
X103949999Y-100594998D03*
%TO.P,D44,3,DIN*%
%TO.N,Net-(D43-DOUT)*%
X103949999Y-102424998D03*
%TO.P,D44,4,VDD*%
%TO.N,V+*%
X105049999Y-102424998D03*
%TD*%
%TO.P,D63,1,DOUT*%
%TO.N,Net-(D63-DOUT)*%
X111049999Y-91594999D03*
%TO.P,D63,2,GND*%
%TO.N,GND*%
X109949999Y-91594999D03*
%TO.P,D63,3,DIN*%
%TO.N,Net-(D62-DOUT)*%
X109949999Y-93424999D03*
%TO.P,D63,4,VDD*%
%TO.N,V+*%
X111049999Y-93424999D03*
%TD*%
%TO.P,D29,1,DOUT*%
%TO.N,Net-(D29-DOUT)*%
X99049999Y-97594999D03*
%TO.P,D29,2,GND*%
%TO.N,GND*%
X97949999Y-97594999D03*
%TO.P,D29,3,DIN*%
%TO.N,Net-(D28-DOUT)*%
X97949999Y-99424999D03*
%TO.P,D29,4,VDD*%
%TO.N,V+*%
X99049999Y-99424999D03*
%TD*%
%TO.P,D56,1,DOUT*%
%TO.N,/x8_7/DIN*%
X108049999Y-88594999D03*
%TO.P,D56,2,GND*%
%TO.N,GND*%
X106949999Y-88594999D03*
%TO.P,D56,3,DIN*%
%TO.N,Net-(D55-DOUT)*%
X106949999Y-90424999D03*
%TO.P,D56,4,VDD*%
%TO.N,V+*%
X108049999Y-90424999D03*
%TD*%
%TO.P,D3,1,DOUT*%
%TO.N,Net-(D3-DOUT)*%
X90050000Y-103594999D03*
%TO.P,D3,2,GND*%
%TO.N,GND*%
X88950000Y-103594999D03*
%TO.P,D3,3,DIN*%
%TO.N,Net-(D2-DOUT)*%
X88950000Y-105424999D03*
%TO.P,D3,4,VDD*%
%TO.N,V+*%
X90050000Y-105424999D03*
%TD*%
%TO.P,D15,1,DOUT*%
%TO.N,Net-(D15-DOUT)*%
X93049999Y-91594999D03*
%TO.P,D15,2,GND*%
%TO.N,GND*%
X91949999Y-91594999D03*
%TO.P,D15,3,DIN*%
%TO.N,Net-(D14-DOUT)*%
X91949999Y-93424999D03*
%TO.P,D15,4,VDD*%
%TO.N,V+*%
X93049999Y-93424999D03*
%TD*%
%TO.P,D6,1,DOUT*%
%TO.N,Net-(D6-DOUT)*%
X90050000Y-94594999D03*
%TO.P,D6,2,GND*%
%TO.N,GND*%
X88950000Y-94594999D03*
%TO.P,D6,3,DIN*%
%TO.N,Net-(D5-DOUT)*%
X88950000Y-96424999D03*
%TO.P,D6,4,VDD*%
%TO.N,V+*%
X90050000Y-96424999D03*
%TD*%
%TO.P,D5,1,DOUT*%
%TO.N,Net-(D5-DOUT)*%
X90049999Y-97594999D03*
%TO.P,D5,2,GND*%
%TO.N,GND*%
X88949999Y-97594999D03*
%TO.P,D5,3,DIN*%
%TO.N,Net-(D4-DOUT)*%
X88949999Y-99424999D03*
%TO.P,D5,4,VDD*%
%TO.N,V+*%
X90049999Y-99424999D03*
%TD*%
%TO.P,D52,1,DOUT*%
%TO.N,Net-(D52-DOUT)*%
X108049999Y-100594998D03*
%TO.P,D52,2,GND*%
%TO.N,GND*%
X106949999Y-100594998D03*
%TO.P,D52,3,DIN*%
%TO.N,Net-(D51-DOUT)*%
X106949999Y-102424998D03*
%TO.P,D52,4,VDD*%
%TO.N,V+*%
X108049999Y-102424998D03*
%TD*%
%TO.P,D45,1,DOUT*%
%TO.N,Net-(D45-DOUT)*%
X105049999Y-97594999D03*
%TO.P,D45,2,GND*%
%TO.N,GND*%
X103949999Y-97594999D03*
%TO.P,D45,3,DIN*%
%TO.N,Net-(D44-DOUT)*%
X103949999Y-99424999D03*
%TO.P,D45,4,VDD*%
%TO.N,V+*%
X105049999Y-99424999D03*
%TD*%
%TO.P,D21,1,DOUT*%
%TO.N,Net-(D21-DOUT)*%
X96049999Y-97594999D03*
%TO.P,D21,2,GND*%
%TO.N,GND*%
X94949999Y-97594999D03*
%TO.P,D21,3,DIN*%
%TO.N,Net-(D20-DOUT)*%
X94949999Y-99424999D03*
%TO.P,D21,4,VDD*%
%TO.N,V+*%
X96049999Y-99424999D03*
%TD*%
%TO.P,D57,1,DOUT*%
%TO.N,Net-(D57-DOUT)*%
X111049999Y-109594999D03*
%TO.P,D57,2,GND*%
%TO.N,GND*%
X109949999Y-109594999D03*
%TO.P,D57,3,DIN*%
%TO.N,/x8_7/DIN*%
X109949999Y-111424999D03*
%TO.P,D57,4,VDD*%
%TO.N,V+*%
X111049999Y-111424999D03*
%TD*%
%TO.P,D10,1,DOUT*%
%TO.N,Net-(D10-DOUT)*%
X93049999Y-106594998D03*
%TO.P,D10,2,GND*%
%TO.N,GND*%
X91949999Y-106594998D03*
%TO.P,D10,3,DIN*%
%TO.N,Net-(D10-DIN)*%
X91949999Y-108424998D03*
%TO.P,D10,4,VDD*%
%TO.N,V+*%
X93049999Y-108424998D03*
%TD*%
%TO.P,D36,1,DOUT*%
%TO.N,Net-(D36-DOUT)*%
X102049999Y-100594999D03*
%TO.P,D36,2,GND*%
%TO.N,GND*%
X100949999Y-100594999D03*
%TO.P,D36,3,DIN*%
%TO.N,Net-(D35-DOUT)*%
X100949999Y-102424999D03*
%TO.P,D36,4,VDD*%
%TO.N,V+*%
X102049999Y-102424999D03*
%TD*%
%TO.P,D2,1,DOUT*%
%TO.N,Net-(D2-DOUT)*%
X90049999Y-106594999D03*
%TO.P,D2,2,GND*%
%TO.N,GND*%
X88949999Y-106594999D03*
%TO.P,D2,3,DIN*%
%TO.N,Net-(D1-DOUT)*%
X88949999Y-108424999D03*
%TO.P,D2,4,VDD*%
%TO.N,V+*%
X90049999Y-108424999D03*
%TD*%
%TO.P,D32,1,DOUT*%
%TO.N,/x8_4/DOUT*%
X99049999Y-88594999D03*
%TO.P,D32,2,GND*%
%TO.N,GND*%
X97949999Y-88594999D03*
%TO.P,D32,3,DIN*%
%TO.N,Net-(D31-DOUT)*%
X97949999Y-90424999D03*
%TO.P,D32,4,VDD*%
%TO.N,V+*%
X99049999Y-90424999D03*
%TD*%
%TO.P,D64,1,DOUT*%
%TO.N,/x8_7/DOUT*%
X111049999Y-88594998D03*
%TO.P,D64,2,GND*%
%TO.N,GND*%
X109949999Y-88594998D03*
%TO.P,D64,3,DIN*%
%TO.N,Net-(D63-DOUT)*%
X109949999Y-90424998D03*
%TO.P,D64,4,VDD*%
%TO.N,V+*%
X111049999Y-90424998D03*
%TD*%
%TO.P,D54,1,DOUT*%
%TO.N,Net-(D54-DOUT)*%
X108050000Y-94594999D03*
%TO.P,D54,2,GND*%
%TO.N,GND*%
X106950000Y-94594999D03*
%TO.P,D54,3,DIN*%
%TO.N,Net-(D53-DOUT)*%
X106950000Y-96424999D03*
%TO.P,D54,4,VDD*%
%TO.N,V+*%
X108050000Y-96424999D03*
%TD*%
%TO.P,D41,1,DOUT*%
%TO.N,Net-(D41-DOUT)*%
X105049999Y-109594998D03*
%TO.P,D41,2,GND*%
%TO.N,GND*%
X103949999Y-109594998D03*
%TO.P,D41,3,DIN*%
%TO.N,/x8_5/DOUT*%
X103949999Y-111424998D03*
%TO.P,D41,4,VDD*%
%TO.N,V+*%
X105049999Y-111424998D03*
%TD*%
%TO.P,D28,1,DOUT*%
%TO.N,Net-(D28-DOUT)*%
X99049999Y-100594998D03*
%TO.P,D28,2,GND*%
%TO.N,GND*%
X97949999Y-100594998D03*
%TO.P,D28,3,DIN*%
%TO.N,Net-(D27-DOUT)*%
X97949999Y-102424998D03*
%TO.P,D28,4,VDD*%
%TO.N,V+*%
X99049999Y-102424998D03*
%TD*%
%TO.P,D40,1,DOUT*%
%TO.N,/x8_5/DOUT*%
X102049999Y-88594998D03*
%TO.P,D40,2,GND*%
%TO.N,GND*%
X100949999Y-88594998D03*
%TO.P,D40,3,DIN*%
%TO.N,Net-(D39-DOUT)*%
X100949999Y-90424998D03*
%TO.P,D40,4,VDD*%
%TO.N,V+*%
X102049999Y-90424998D03*
%TD*%
%TO.P,D9,1,DOUT*%
%TO.N,Net-(D10-DIN)*%
X93049999Y-109594999D03*
%TO.P,D9,2,GND*%
%TO.N,GND*%
X91949999Y-109594999D03*
%TO.P,D9,3,DIN*%
%TO.N,/x8_1/DOUT*%
X91949999Y-111424999D03*
%TO.P,D9,4,VDD*%
%TO.N,V+*%
X93049999Y-111424999D03*
%TD*%
%TO.P,D59,1,DOUT*%
%TO.N,Net-(D59-DOUT)*%
X111049999Y-103594999D03*
%TO.P,D59,2,GND*%
%TO.N,GND*%
X109949999Y-103594999D03*
%TO.P,D59,3,DIN*%
%TO.N,Net-(D58-DOUT)*%
X109949999Y-105424999D03*
%TO.P,D59,4,VDD*%
%TO.N,V+*%
X111049999Y-105424999D03*
%TD*%
%TO.P,D4,1,DOUT*%
%TO.N,Net-(D4-DOUT)*%
X90049999Y-100594998D03*
%TO.P,D4,2,GND*%
%TO.N,GND*%
X88949999Y-100594998D03*
%TO.P,D4,3,DIN*%
%TO.N,Net-(D3-DOUT)*%
X88949999Y-102424998D03*
%TO.P,D4,4,VDD*%
%TO.N,V+*%
X90049999Y-102424998D03*
%TD*%
%TO.P,D25,1,DOUT*%
%TO.N,Net-(D25-DOUT)*%
X99049999Y-109594998D03*
%TO.P,D25,2,GND*%
%TO.N,GND*%
X97949999Y-109594998D03*
%TO.P,D25,3,DIN*%
%TO.N,/x8_3/DOUT*%
X97949999Y-111424998D03*
%TO.P,D25,4,VDD*%
%TO.N,V+*%
X99049999Y-111424998D03*
%TD*%
%TO.P,D62,1,DOUT*%
%TO.N,Net-(D62-DOUT)*%
X111049999Y-94594999D03*
%TO.P,D62,2,GND*%
%TO.N,GND*%
X109949999Y-94594999D03*
%TO.P,D62,3,DIN*%
%TO.N,Net-(D61-DOUT)*%
X109949999Y-96424999D03*
%TO.P,D62,4,VDD*%
%TO.N,V+*%
X111049999Y-96424999D03*
%TD*%
%TO.P,D8,1,DOUT*%
%TO.N,/x8_1/DOUT*%
X90049999Y-88594999D03*
%TO.P,D8,2,GND*%
%TO.N,GND*%
X88949999Y-88594999D03*
%TO.P,D8,3,DIN*%
%TO.N,Net-(D7-DOUT)*%
X88949999Y-90424999D03*
%TO.P,D8,4,VDD*%
%TO.N,V+*%
X90049999Y-90424999D03*
%TD*%
%TO.P,D61,1,DOUT*%
%TO.N,Net-(D61-DOUT)*%
X111049999Y-97594998D03*
%TO.P,D61,2,GND*%
%TO.N,GND*%
X109949999Y-97594998D03*
%TO.P,D61,3,DIN*%
%TO.N,Net-(D60-DOUT)*%
X109949999Y-99424998D03*
%TO.P,D61,4,VDD*%
%TO.N,V+*%
X111049999Y-99424998D03*
%TD*%
%TO.P,D30,1,DOUT*%
%TO.N,Net-(D30-DOUT)*%
X99050000Y-94594999D03*
%TO.P,D30,2,GND*%
%TO.N,GND*%
X97950000Y-94594999D03*
%TO.P,D30,3,DIN*%
%TO.N,Net-(D29-DOUT)*%
X97950000Y-96424999D03*
%TO.P,D30,4,VDD*%
%TO.N,V+*%
X99050000Y-96424999D03*
%TD*%
%TO.P,D58,1,DOUT*%
%TO.N,Net-(D58-DOUT)*%
X111050000Y-106594999D03*
%TO.P,D58,2,GND*%
%TO.N,GND*%
X109950000Y-106594999D03*
%TO.P,D58,3,DIN*%
%TO.N,Net-(D57-DOUT)*%
X109950000Y-108424999D03*
%TO.P,D58,4,VDD*%
%TO.N,V+*%
X111050000Y-108424999D03*
%TD*%
%TO.P,D34,1,DOUT*%
%TO.N,Net-(D34-DOUT)*%
X102049999Y-106594998D03*
%TO.P,D34,2,GND*%
%TO.N,GND*%
X100949999Y-106594998D03*
%TO.P,D34,3,DIN*%
%TO.N,Net-(D33-DOUT)*%
X100949999Y-108424998D03*
%TO.P,D34,4,VDD*%
%TO.N,V+*%
X102049999Y-108424998D03*
%TD*%
%TO.P,D24,1,DOUT*%
%TO.N,/x8_3/DOUT*%
X96049999Y-88594999D03*
%TO.P,D24,2,GND*%
%TO.N,GND*%
X94949999Y-88594999D03*
%TO.P,D24,3,DIN*%
%TO.N,Net-(D23-DOUT)*%
X94949999Y-90424999D03*
%TO.P,D24,4,VDD*%
%TO.N,V+*%
X96049999Y-90424999D03*
%TD*%
%TO.P,D55,1,DOUT*%
%TO.N,Net-(D55-DOUT)*%
X108049999Y-91594998D03*
%TO.P,D55,2,GND*%
%TO.N,GND*%
X106949999Y-91594998D03*
%TO.P,D55,3,DIN*%
%TO.N,Net-(D54-DOUT)*%
X106949999Y-93424998D03*
%TO.P,D55,4,VDD*%
%TO.N,V+*%
X108049999Y-93424998D03*
%TD*%
%TO.P,D27,1,DOUT*%
%TO.N,Net-(D27-DOUT)*%
X99050000Y-103594999D03*
%TO.P,D27,2,GND*%
%TO.N,GND*%
X97950000Y-103594999D03*
%TO.P,D27,3,DIN*%
%TO.N,Net-(D26-DOUT)*%
X97950000Y-105424999D03*
%TO.P,D27,4,VDD*%
%TO.N,V+*%
X99050000Y-105424999D03*
%TD*%
%TO.P,D38,1,DOUT*%
%TO.N,Net-(D38-DOUT)*%
X102049999Y-94594999D03*
%TO.P,D38,2,GND*%
%TO.N,GND*%
X100949999Y-94594999D03*
%TO.P,D38,3,DIN*%
%TO.N,Net-(D37-DOUT)*%
X100949999Y-96424999D03*
%TO.P,D38,4,VDD*%
%TO.N,V+*%
X102049999Y-96424999D03*
%TD*%
%TO.P,D1,1,DOUT*%
%TO.N,Net-(D1-DOUT)*%
X90049999Y-109594998D03*
%TO.P,D1,2,GND*%
%TO.N,GND*%
X88949999Y-109594998D03*
%TO.P,D1,3,DIN*%
%TO.N,/x8_1/DIN*%
X88949999Y-111424998D03*
%TO.P,D1,4,VDD*%
%TO.N,V+*%
X90049999Y-111424998D03*
%TD*%
%TO.P,D31,1,DOUT*%
%TO.N,Net-(D31-DOUT)*%
X99049999Y-91594998D03*
%TO.P,D31,2,GND*%
%TO.N,GND*%
X97949999Y-91594998D03*
%TO.P,D31,3,DIN*%
%TO.N,Net-(D30-DOUT)*%
X97949999Y-93424998D03*
%TO.P,D31,4,VDD*%
%TO.N,V+*%
X99049999Y-93424998D03*
%TD*%
%TO.P,D22,1,DOUT*%
%TO.N,Net-(D22-DOUT)*%
X96049999Y-94594999D03*
%TO.P,D22,2,GND*%
%TO.N,GND*%
X94949999Y-94594999D03*
%TO.P,D22,3,DIN*%
%TO.N,Net-(D21-DOUT)*%
X94949999Y-96424999D03*
%TO.P,D22,4,VDD*%
%TO.N,V+*%
X96049999Y-96424999D03*
%TD*%
%TO.P,D49,1,DOUT*%
%TO.N,Net-(D49-DOUT)*%
X108050000Y-109594999D03*
%TO.P,D49,2,GND*%
%TO.N,GND*%
X106950000Y-109594999D03*
%TO.P,D49,3,DIN*%
%TO.N,/x8_6/DOUT*%
X106950000Y-111424999D03*
%TO.P,D49,4,VDD*%
%TO.N,V+*%
X108050000Y-111424999D03*
%TD*%
%TO.P,D48,1,DOUT*%
%TO.N,/x8_6/DOUT*%
X105049999Y-88594999D03*
%TO.P,D48,2,GND*%
%TO.N,GND*%
X103949999Y-88594999D03*
%TO.P,D48,3,DIN*%
%TO.N,Net-(D47-DOUT)*%
X103949999Y-90424999D03*
%TO.P,D48,4,VDD*%
%TO.N,V+*%
X105049999Y-90424999D03*
%TD*%
D11*
%TO.N,/x8_1/DIN*%
X88900000Y-110950000D03*
%TO.N,/x8_1/DOUT*%
X90450000Y-89250000D03*
X91950000Y-110650000D03*
%TO.N,/x8_2/DOUT*%
X93450000Y-89250000D03*
X94950000Y-110650000D03*
%TO.N,/x8_3/DOUT*%
X97950000Y-110650000D03*
X96450000Y-89250000D03*
%TO.N,/x8_4/DOUT*%
X99450000Y-89250000D03*
X100950000Y-110650000D03*
%TO.N,/x8_5/DOUT*%
X103950000Y-110650000D03*
X102450000Y-89250000D03*
%TO.N,/x8_6/DOUT*%
X105450000Y-89250000D03*
X106950000Y-110650000D03*
%TO.N,/x8_7/DIN*%
X108450000Y-89250000D03*
X109950000Y-110650000D03*
%TO.N,/x8_7/DOUT*%
X111000000Y-89425497D03*
%TO.N,GND*%
X100950000Y-88595000D03*
X109950000Y-88595000D03*
X94950000Y-88595000D03*
X106950000Y-88595000D03*
X88950000Y-88595000D03*
X103950000Y-88595000D03*
X97950000Y-88595000D03*
X91950000Y-88595000D03*
%TO.N,V+*%
X99050001Y-111425000D03*
X102050001Y-111425000D03*
X111050000Y-111425000D03*
X108050001Y-111425000D03*
X90050001Y-111425000D03*
X105050001Y-111425000D03*
X96050001Y-111425000D03*
X93050001Y-111425000D03*
%TD*%
D12*
%TO.N,/x8_1/DIN*%
X88900000Y-110950000D02*
X88900000Y-111374999D01*
%TO.N,/x8_1/DOUT*%
X90450000Y-88995000D02*
X90050000Y-88595000D01*
X90450000Y-89250000D02*
X90450000Y-88995000D01*
X91950000Y-111425000D02*
X91950000Y-110650000D01*
%TO.N,/x8_2/DOUT*%
X93050000Y-88595000D02*
X93445000Y-88595000D01*
X93450000Y-88995000D02*
X93050000Y-88595000D01*
X93445000Y-88595000D02*
X93450000Y-88600000D01*
X94950000Y-111425000D02*
X94950000Y-110650000D01*
X93450000Y-89250000D02*
X93450000Y-88995000D01*
%TO.N,/x8_3/DOUT*%
X97950000Y-111425000D02*
X97950000Y-110650000D01*
X96450000Y-89250000D02*
X96450000Y-88995000D01*
X96445000Y-88595000D02*
X96450000Y-88600000D01*
X96450000Y-88995000D02*
X96050000Y-88595000D01*
X96050000Y-88595000D02*
X96445000Y-88595000D01*
%TO.N,/x8_4/DOUT*%
X99050000Y-88595000D02*
X99445000Y-88595000D01*
X99450000Y-89250000D02*
X99450000Y-88995000D01*
X99445000Y-88595000D02*
X99450000Y-88600000D01*
X99450000Y-88995000D02*
X99050000Y-88595000D01*
X100950000Y-111425000D02*
X100950000Y-110650000D01*
%TO.N,/x8_5/DOUT*%
X102445000Y-88595000D02*
X102450000Y-88600000D01*
X102050000Y-88595000D02*
X102445000Y-88595000D01*
X102450000Y-88995000D02*
X102050000Y-88595000D01*
X103950000Y-111425000D02*
X103950000Y-110650000D01*
X102450000Y-89250000D02*
X102450000Y-88995000D01*
%TO.N,/x8_6/DOUT*%
X105450000Y-88995000D02*
X105050000Y-88595000D01*
X105445000Y-88595000D02*
X105450000Y-88600000D01*
X105050000Y-88595000D02*
X105445000Y-88595000D01*
X105450000Y-89250000D02*
X105450000Y-88995000D01*
X106950000Y-111425000D02*
X106950000Y-110650000D01*
%TO.N,/x8_7/DIN*%
X108450000Y-89250000D02*
X108450000Y-88995000D01*
X108450000Y-88995000D02*
X108050000Y-88595000D01*
X109950000Y-111425000D02*
X109950000Y-110650000D01*
%TO.N,/x8_7/DOUT*%
X111000000Y-89425497D02*
X111050000Y-89375497D01*
X111050000Y-89375497D02*
X111050000Y-88594999D01*
D13*
%TO.N,GND*%
X103275000Y-103100000D02*
X103275001Y-101269999D01*
X97275000Y-89270000D02*
X97950000Y-88595000D01*
X91275000Y-100099999D02*
X91275001Y-98269999D01*
X97275000Y-100099999D02*
X97275000Y-98270000D01*
X109275000Y-106100000D02*
X109275001Y-104270000D01*
X88770001Y-109595000D02*
X88275000Y-109099999D01*
X94275000Y-100100000D02*
X94275000Y-98269999D01*
X91770000Y-100595000D02*
X91275000Y-100099999D01*
X94275000Y-103100000D02*
X94275001Y-101269999D01*
X103770000Y-106594999D02*
X103275000Y-106099999D01*
X109950000Y-103595000D02*
X109770001Y-103595000D01*
X103950000Y-103595000D02*
X103770000Y-103595000D01*
X106770000Y-103595000D02*
X106275000Y-103100000D01*
X94950001Y-109595000D02*
X94770000Y-109595000D01*
X94275000Y-106099999D02*
X94275000Y-104270000D01*
X94275001Y-101269999D02*
X94950001Y-100595000D01*
X100770000Y-106595000D02*
X100275000Y-106100000D01*
X94275000Y-94100000D02*
X94275001Y-92270000D01*
X100275001Y-107269999D02*
X100950000Y-106594999D01*
X91950001Y-106594999D02*
X91770000Y-106595000D01*
X109275001Y-104270000D02*
X109950000Y-103595000D01*
X94275000Y-95270000D02*
X94950000Y-94595000D01*
X100950000Y-97594999D02*
X100770000Y-97595000D01*
X91275000Y-101269999D02*
X91950000Y-100595000D01*
X109275000Y-101269999D02*
X109950000Y-100595000D01*
X88275000Y-95269999D02*
X88950000Y-94594999D01*
X97275000Y-91099999D02*
X97275000Y-89270000D01*
X88275000Y-89270000D02*
X88950000Y-88595000D01*
X109275001Y-89269999D02*
X109950000Y-88594999D01*
X88770001Y-100595000D02*
X88275000Y-100099999D01*
X100275001Y-98269999D02*
X100950000Y-97594999D01*
X88275000Y-91099999D02*
X88275000Y-89270000D01*
X88275000Y-100099999D02*
X88275000Y-98270000D01*
X88275000Y-101269999D02*
X88950000Y-100595000D01*
X94770000Y-97594999D02*
X94275000Y-97099999D01*
X100950000Y-94595000D02*
X100770000Y-94594999D01*
X97275000Y-101269999D02*
X97950000Y-100595000D01*
X91950000Y-109595000D02*
X91770000Y-109595000D01*
X97275000Y-97100000D02*
X97275000Y-95269999D01*
X100950000Y-100595000D02*
X100770000Y-100595000D01*
X91275000Y-97100000D02*
X91275001Y-95270000D01*
X106770001Y-109595000D02*
X106275000Y-109099999D01*
X103950000Y-97594999D02*
X103770000Y-97594999D01*
X97950000Y-103594999D02*
X97770000Y-103595000D01*
X88275000Y-94100000D02*
X88275000Y-92270000D01*
X91950000Y-91595000D02*
X91770000Y-91595000D01*
X100770000Y-109595000D02*
X100275000Y-109099999D01*
X91275000Y-91099999D02*
X91275001Y-89269999D01*
X106275000Y-109099999D02*
X106275000Y-107270000D01*
X88770000Y-97594999D02*
X88275000Y-97100000D01*
X97950000Y-100595000D02*
X97770001Y-100595000D01*
X109770000Y-109595000D02*
X109275001Y-109100000D01*
X100275001Y-104270000D02*
X100950000Y-103595000D01*
X106275000Y-106100000D02*
X106275000Y-104269999D01*
X109275000Y-100099999D02*
X109275001Y-98269999D01*
X106950000Y-91595000D02*
X106770001Y-91595000D01*
X94275000Y-97099999D02*
X94275000Y-95270000D01*
X94275000Y-89269999D02*
X94950000Y-88594999D01*
X88275000Y-98270000D02*
X88950000Y-97595000D01*
X109950000Y-109595000D02*
X109770000Y-109595000D01*
X103275001Y-91099999D02*
X103275000Y-89269999D01*
X100275000Y-100099999D02*
X100275001Y-98269999D01*
X100275000Y-97100000D02*
X100275001Y-95270000D01*
X97770001Y-100595000D02*
X97275000Y-100099999D01*
X88275000Y-103100000D02*
X88275000Y-101269999D01*
X88770000Y-94595000D02*
X88275000Y-94100000D01*
X94770000Y-100595000D02*
X94275000Y-100100000D01*
X94275000Y-107269999D02*
X94950000Y-106594999D01*
X91770000Y-94594999D02*
X91275001Y-94100000D01*
X91275001Y-107269999D02*
X91950001Y-106594999D01*
X106770001Y-94594999D02*
X106275000Y-94099999D01*
X106950000Y-94594999D02*
X106770001Y-94594999D01*
X106275000Y-107270000D02*
X106950000Y-106595000D01*
X88275000Y-106100000D02*
X88275000Y-104269999D01*
X106950000Y-103594999D02*
X106770000Y-103595000D01*
X97950000Y-106595000D02*
X97770000Y-106594999D01*
X109770000Y-100595000D02*
X109275000Y-100099999D01*
X109770001Y-103595000D02*
X109275001Y-103100000D01*
X106275000Y-98270000D02*
X106950000Y-97595000D01*
X103770000Y-97594999D02*
X103275000Y-97099999D01*
X91275000Y-106100000D02*
X91275001Y-104270000D01*
X103275000Y-97099999D02*
X103275000Y-95270000D01*
X106275000Y-95269999D02*
X106950000Y-94594999D01*
X106275000Y-104269999D02*
X106950000Y-103594999D01*
X91770000Y-103594999D02*
X91275001Y-103100000D01*
X91275000Y-92270000D02*
X91950000Y-91595000D01*
X88950000Y-109595000D02*
X88770001Y-109595000D01*
X91770000Y-109595000D02*
X91275000Y-109099999D01*
X97275000Y-95269999D02*
X97950000Y-94594999D01*
X91950001Y-103595000D02*
X91770000Y-103594999D01*
X100275001Y-95270000D02*
X100950000Y-94595000D01*
X100770000Y-103594999D02*
X100275001Y-103100000D01*
X103770000Y-100595000D02*
X103275000Y-100100000D01*
X103275000Y-100100000D02*
X103275000Y-98269999D01*
X97770000Y-94595000D02*
X97275000Y-94100000D01*
X109275001Y-98269999D02*
X109950000Y-97594999D01*
X106275000Y-89270000D02*
X106950000Y-88595000D01*
X103950000Y-94595000D02*
X103770000Y-94595000D01*
X100770000Y-97595000D02*
X100275000Y-97100000D01*
X88950000Y-103594999D02*
X88770000Y-103595000D01*
X91950001Y-94595000D02*
X91770000Y-94594999D01*
X109275001Y-107269999D02*
X109950000Y-106594999D01*
X103950001Y-100595000D02*
X103770000Y-100595000D01*
X91770000Y-91595000D02*
X91275000Y-91099999D01*
X106275000Y-97100000D02*
X106275000Y-95269999D01*
X109950000Y-97594999D02*
X109770001Y-97594999D01*
X106275000Y-92270000D02*
X106950000Y-91595000D01*
X88275000Y-92270000D02*
X88950000Y-91595000D01*
X100770000Y-94594999D02*
X100275001Y-94100000D01*
X88770000Y-103595000D02*
X88275000Y-103100000D01*
X106950000Y-106595000D02*
X106770001Y-106595000D01*
X97770000Y-106594999D02*
X97275000Y-106100000D01*
X88275000Y-109099999D02*
X88275000Y-107270000D01*
X100275001Y-103100000D02*
X100275000Y-101269999D01*
X97950000Y-94594999D02*
X97770000Y-94595000D01*
X103275000Y-107269999D02*
X103950000Y-106594999D01*
X103275000Y-109100000D02*
X103275000Y-107269999D01*
X100950000Y-106594999D02*
X100770000Y-106595000D01*
X100275000Y-91099999D02*
X100275001Y-89269999D01*
X100950000Y-109595000D02*
X100770000Y-109595000D01*
X109275000Y-91099999D02*
X109275001Y-89269999D01*
X94950000Y-103595000D02*
X94770000Y-103595000D01*
X94950000Y-94595000D02*
X94770000Y-94595000D01*
X100770000Y-91595000D02*
X100275000Y-91099999D01*
X97275000Y-103100000D02*
X97275000Y-101269999D01*
X94770000Y-103595000D02*
X94275000Y-103100000D01*
X106275000Y-91099999D02*
X106275000Y-89270000D01*
X109275001Y-103100000D02*
X109275000Y-101269999D01*
X106275000Y-103100000D02*
X106275000Y-101269999D01*
X109950000Y-94595000D02*
X109770000Y-94594999D01*
X103770000Y-109595000D02*
X103275000Y-109100000D01*
X91275001Y-94100000D02*
X91275000Y-92270000D01*
X100275000Y-106100000D02*
X100275001Y-104270000D01*
X97275000Y-104269999D02*
X97950000Y-103594999D01*
X97275000Y-107270000D02*
X97950000Y-106595000D01*
X106275000Y-100099999D02*
X106275000Y-98270000D01*
X109770000Y-106595000D02*
X109275000Y-106100000D01*
X97770000Y-97594999D02*
X97275000Y-97100000D01*
X97770001Y-91595000D02*
X97275000Y-91099999D01*
X91275001Y-104270000D02*
X91950001Y-103595000D01*
X91275001Y-95270000D02*
X91950001Y-94595000D01*
X94770000Y-109595000D02*
X94275000Y-109100000D01*
X103275000Y-106099999D02*
X103275000Y-104270000D01*
X103275000Y-98269999D02*
X103950000Y-97594999D01*
X94950001Y-91595000D02*
X94770000Y-91595000D01*
X100275000Y-101269999D02*
X100950000Y-100595000D01*
X88770001Y-91595000D02*
X88275000Y-91099999D01*
X106950000Y-97595000D02*
X106770000Y-97594999D01*
X97275000Y-94100000D02*
X97275000Y-92270000D01*
X88950000Y-97595000D02*
X88770000Y-97594999D01*
X109275001Y-97099999D02*
X109275001Y-95270000D01*
X94950000Y-106594999D02*
X94770000Y-106594999D01*
X97770001Y-109595000D02*
X97275000Y-109099999D01*
X91950001Y-97594999D02*
X91770000Y-97595000D01*
X88770000Y-106594999D02*
X88275000Y-106100000D01*
X103950000Y-106594999D02*
X103770000Y-106594999D01*
X97275000Y-92270000D02*
X97950000Y-91595000D01*
X97950000Y-97595000D02*
X97770000Y-97594999D01*
X103275000Y-94100000D02*
X103275001Y-92270000D01*
X109275001Y-95270000D02*
X109950000Y-94595000D01*
X91950000Y-100595000D02*
X91770000Y-100595000D01*
X88275000Y-97100000D02*
X88275000Y-95269999D01*
X94950000Y-97594999D02*
X94770000Y-97594999D01*
X88275000Y-104269999D02*
X88950000Y-103594999D01*
X103950001Y-91595000D02*
X103770000Y-91594999D01*
X106275000Y-94099999D02*
X106275000Y-92270000D01*
X100275000Y-92270000D02*
X100950000Y-91595000D01*
X100275001Y-89269999D02*
X100950000Y-88594999D01*
X94770000Y-91595000D02*
X94275000Y-91100000D01*
X109950000Y-91595000D02*
X109770000Y-91595000D01*
X100275000Y-109099999D02*
X100275001Y-107269999D01*
X97770000Y-103595000D02*
X97275000Y-103100000D01*
X100950000Y-103595000D02*
X100770000Y-103594999D01*
X94770000Y-106594999D02*
X94275000Y-106099999D01*
X103950001Y-109595000D02*
X103770000Y-109595000D01*
X106770001Y-106595000D02*
X106275000Y-106100000D01*
X100275001Y-94100000D02*
X100275000Y-92270000D01*
X103275000Y-95270000D02*
X103950000Y-94595000D01*
X109950000Y-106594999D02*
X109770000Y-106595000D01*
X100770000Y-100595000D02*
X100275000Y-100099999D01*
X94275000Y-91100000D02*
X94275000Y-89269999D01*
X94275000Y-98269999D02*
X94950000Y-97594999D01*
X109275000Y-92270000D02*
X109950000Y-91595000D01*
X94275000Y-104270000D02*
X94950000Y-103595000D01*
X109950000Y-100595000D02*
X109770000Y-100595000D01*
X88950000Y-94594999D02*
X88770000Y-94595000D01*
X94275001Y-92270000D02*
X94950001Y-91595000D01*
X100950000Y-91595000D02*
X100770000Y-91595000D01*
X88950000Y-91595000D02*
X88770001Y-91595000D01*
X91770000Y-106595000D02*
X91275000Y-106100000D01*
X91275000Y-109099999D02*
X91275001Y-107269999D01*
X109275001Y-109100000D02*
X109275001Y-107269999D01*
X103770000Y-94595000D02*
X103275000Y-94100000D01*
X88275000Y-107270000D02*
X88950000Y-106595000D01*
X106770000Y-97594999D02*
X106275000Y-97100000D01*
X88950000Y-100595000D02*
X88770001Y-100595000D01*
X103770000Y-103595000D02*
X103275000Y-103100000D01*
X109770000Y-94594999D02*
X109275001Y-94100000D01*
X88950000Y-106595000D02*
X88770000Y-106594999D01*
X106770001Y-100595000D02*
X106275000Y-100099999D01*
X97275000Y-106100000D02*
X97275000Y-104269999D01*
X106770001Y-91595000D02*
X106275000Y-91099999D01*
X94275000Y-109100000D02*
X94275000Y-107269999D01*
X109275001Y-94100000D02*
X109275000Y-92270000D01*
X106950000Y-100595000D02*
X106770001Y-100595000D01*
X97275000Y-98270000D02*
X97950000Y-97595000D01*
X97275000Y-109099999D02*
X97275000Y-107270000D01*
X94770000Y-94595000D02*
X94275000Y-94100000D01*
X91275001Y-103100000D02*
X91275000Y-101269999D01*
X103275000Y-89269999D02*
X103950000Y-88594999D01*
X103275001Y-92270000D02*
X103950001Y-91595000D01*
X106275000Y-101269999D02*
X106950000Y-100595000D01*
X97950000Y-109595000D02*
X97770001Y-109595000D01*
X109770001Y-97594999D02*
X109275001Y-97099999D01*
X109770000Y-91595000D02*
X109275000Y-91099999D01*
X103275001Y-101269999D02*
X103950001Y-100595000D01*
X94950001Y-100595000D02*
X94770000Y-100595000D01*
X106950000Y-109595000D02*
X106770001Y-109595000D01*
X91275001Y-89269999D02*
X91950001Y-88594999D01*
X91275001Y-98269999D02*
X91950001Y-97594999D01*
X97950000Y-91595000D02*
X97770001Y-91595000D01*
X103275000Y-104270000D02*
X103950000Y-103595000D01*
X91770000Y-97595000D02*
X91275000Y-97100000D01*
X103770000Y-91594999D02*
X103275001Y-91099999D01*
%TO.N,V+*%
X96725000Y-107750000D02*
X96725000Y-106100000D01*
X93725000Y-94100000D02*
X93050000Y-93425000D01*
X108050000Y-102425000D02*
X108725000Y-101750000D01*
X108725001Y-107750000D02*
X108725000Y-106099999D01*
X90725001Y-107750000D02*
X90725000Y-106099999D01*
X102725000Y-103100000D02*
X102050000Y-102425000D01*
X90725000Y-91100000D02*
X90050000Y-90425000D01*
X111725000Y-101749999D02*
X111725000Y-100099999D01*
X90725000Y-110750000D02*
X90725000Y-109100000D01*
X102050000Y-102425000D02*
X102725000Y-101749999D01*
X99725000Y-95749999D02*
X99725000Y-94100000D01*
X105050001Y-102425000D02*
X105725001Y-101750000D01*
X93050000Y-102425000D02*
X93725000Y-101749999D01*
X108050000Y-96424999D02*
X108725000Y-95749999D01*
X105050000Y-99424999D02*
X105725000Y-98750000D01*
X105725001Y-94100000D02*
X105050001Y-93425000D01*
X102050001Y-99424999D02*
X102725000Y-98750000D01*
X99725000Y-109100000D02*
X99050000Y-108425000D01*
X102725000Y-95750000D02*
X102725000Y-94100000D01*
X96725001Y-92750000D02*
X96725000Y-91099999D01*
X111725000Y-110749999D02*
X111725000Y-109099999D01*
X93725000Y-106100000D02*
X93050001Y-105425000D01*
X108725000Y-94100000D02*
X108050000Y-93425000D01*
X93725000Y-92749999D02*
X93725000Y-91099999D01*
X108725000Y-101750000D02*
X108725000Y-100100000D01*
X93725000Y-109099999D02*
X93050001Y-108424999D01*
X96050000Y-96425000D02*
X96725001Y-95749999D01*
X108050000Y-93425000D02*
X108725000Y-92750000D01*
X93050000Y-111425000D02*
X93725000Y-110749999D01*
X96725000Y-100099999D02*
X96050000Y-99424999D01*
X102725000Y-97100000D02*
X102050001Y-96425000D01*
X105725000Y-98750000D02*
X105725000Y-97100000D01*
X99050000Y-111425000D02*
X99725000Y-110750000D01*
X90725000Y-95749999D02*
X90725000Y-94100000D01*
X96050001Y-111425000D02*
X96725001Y-110750000D01*
X93050001Y-96425000D02*
X93725000Y-95750000D01*
X99725000Y-106099999D02*
X99050000Y-105424999D01*
X105725001Y-92750000D02*
X105725000Y-91099999D01*
X111050000Y-111425000D02*
X111725000Y-110749999D01*
X93050001Y-105425000D02*
X93725000Y-104750000D01*
X93725000Y-101749999D02*
X93725000Y-100099999D01*
X105725001Y-104749999D02*
X105725001Y-103100000D01*
X90725000Y-97099999D02*
X90050000Y-96424999D01*
X99050000Y-96424999D02*
X99725000Y-95749999D01*
X108725000Y-103100000D02*
X108050000Y-102425000D01*
X105725000Y-107750000D02*
X105725000Y-106100000D01*
X105725001Y-110750000D02*
X105725000Y-109099999D01*
X111725000Y-97100000D02*
X111050000Y-96425000D01*
X96050001Y-93425000D02*
X96725001Y-92750000D01*
X96050000Y-105425000D02*
X96725001Y-104749999D01*
X111725000Y-91099999D02*
X111050000Y-90425000D01*
X102725000Y-94100000D02*
X102050000Y-93425000D01*
X102725000Y-91099999D02*
X102050001Y-90425000D01*
X108725000Y-104749999D02*
X108725000Y-103100000D01*
X102725000Y-107750000D02*
X102725000Y-106100000D01*
X99050000Y-108425000D02*
X99725001Y-107750000D01*
X102050001Y-96425000D02*
X102725000Y-95750000D01*
X93725000Y-107750000D02*
X93725000Y-106100000D01*
X108725000Y-91100000D02*
X108050000Y-90425000D01*
X93725000Y-100099999D02*
X93050001Y-99424999D01*
X102725000Y-106100000D02*
X102050001Y-105425000D01*
X111050000Y-105425000D02*
X111725000Y-104750000D01*
X105725000Y-91099999D02*
X105050000Y-90425000D01*
X90725001Y-98750000D02*
X90725000Y-97099999D01*
X96725000Y-109099999D02*
X96050000Y-108424999D01*
X108050000Y-108425000D02*
X108725001Y-107750000D01*
X90050000Y-99425000D02*
X90725001Y-98750000D01*
X96725001Y-110750000D02*
X96725000Y-109099999D01*
X90725000Y-101750000D02*
X90725000Y-100100000D01*
X90725000Y-92750000D02*
X90725000Y-91100000D01*
X96725000Y-106100000D02*
X96050000Y-105425000D01*
X102725000Y-92749999D02*
X102725000Y-91099999D01*
X90050000Y-93425000D02*
X90725000Y-92750000D01*
X90725000Y-94100000D02*
X90050000Y-93425000D01*
X108725000Y-100100000D02*
X108050000Y-99425000D01*
X90050000Y-108425000D02*
X90725001Y-107750000D01*
X111725000Y-92749999D02*
X111725000Y-91099999D01*
X111050000Y-93425000D02*
X111725000Y-92749999D01*
X102725000Y-100099999D02*
X102050001Y-99424999D01*
X99725000Y-91100000D02*
X99050000Y-90425000D01*
X105725000Y-109099999D02*
X105050000Y-108424999D01*
X99050000Y-93425000D02*
X99725000Y-92750000D01*
X96725000Y-97100000D02*
X96050000Y-96425000D01*
X108725000Y-92750000D02*
X108725000Y-91100000D01*
X105050000Y-105425000D02*
X105725001Y-104749999D01*
X108725001Y-98750000D02*
X108725000Y-97099999D01*
X99725000Y-110750000D02*
X99725000Y-109100000D01*
X105725001Y-95749999D02*
X105725001Y-94100000D01*
X96725001Y-94100000D02*
X96050001Y-93425000D01*
X111050000Y-108424999D02*
X111725000Y-107750000D01*
X99725000Y-104749999D02*
X99725000Y-103100000D01*
X93725000Y-104750000D02*
X93725000Y-103100000D01*
X96050000Y-99424999D02*
X96725000Y-98750000D01*
X93725000Y-98750000D02*
X93725000Y-97100000D01*
X102050001Y-105425000D02*
X102725000Y-104750000D01*
X99050000Y-105424999D02*
X99725000Y-104749999D01*
X102725000Y-109099999D02*
X102050001Y-108424999D01*
X111725000Y-94100000D02*
X111050000Y-93425000D01*
X90050000Y-96424999D02*
X90725000Y-95749999D01*
X111725000Y-95750000D02*
X111725000Y-94100000D01*
X111725000Y-103100000D02*
X111050000Y-102425000D01*
X99725000Y-100100000D02*
X99050000Y-99425000D01*
X93725000Y-103100000D02*
X93050000Y-102425000D01*
X105050001Y-111425000D02*
X105725001Y-110750000D01*
X93725000Y-95750000D02*
X93725000Y-94100000D01*
X108725000Y-109100000D02*
X108050000Y-108425000D01*
X105050001Y-93425000D02*
X105725001Y-92750000D01*
X102725000Y-101749999D02*
X102725000Y-100099999D01*
X90050000Y-105424999D02*
X90725000Y-104749999D01*
X108725000Y-106099999D02*
X108050000Y-105424999D01*
X105725001Y-103100000D02*
X105050001Y-102425000D01*
X93725000Y-97100000D02*
X93050001Y-96425000D01*
X102725000Y-110749999D02*
X102725000Y-109099999D01*
X108725000Y-95749999D02*
X108725000Y-94100000D01*
X102725000Y-98750000D02*
X102725000Y-97100000D01*
X111725000Y-107750000D02*
X111725000Y-106100000D01*
X93050000Y-93425000D02*
X93725000Y-92749999D01*
X96725001Y-104749999D02*
X96725001Y-103100000D01*
X90050000Y-111425000D02*
X90725000Y-110750000D01*
X105725000Y-106100000D02*
X105050000Y-105425000D01*
X90050000Y-102425000D02*
X90725000Y-101750000D01*
X105050000Y-108424999D02*
X105725000Y-107750000D01*
X90725000Y-100100000D02*
X90050000Y-99425000D01*
X90725000Y-103100000D02*
X90050000Y-102425000D01*
X99725001Y-98750000D02*
X99725000Y-97099999D01*
X105050000Y-96425000D02*
X105725001Y-95749999D01*
X111725000Y-109099999D02*
X111050000Y-108424999D01*
X102050000Y-93425000D02*
X102725000Y-92749999D01*
X111050000Y-96425000D02*
X111725000Y-95750000D01*
X96725000Y-91099999D02*
X96050000Y-90425000D01*
X99050000Y-99425000D02*
X99725001Y-98750000D01*
X96050001Y-102425000D02*
X96725001Y-101750000D01*
X93050001Y-99424999D02*
X93725000Y-98750000D01*
X99725000Y-92750000D02*
X99725000Y-91100000D01*
X111725000Y-104750000D02*
X111725000Y-103100000D01*
X93050001Y-108424999D02*
X93725000Y-107750000D01*
X102725000Y-104750000D02*
X102725000Y-103100000D01*
X90725000Y-104749999D02*
X90725000Y-103100000D01*
X93725000Y-110749999D02*
X93725000Y-109099999D01*
X108725000Y-97099999D02*
X108050000Y-96424999D01*
X111725000Y-106100000D02*
X111050000Y-105425000D01*
X99725000Y-101750000D02*
X99725000Y-100100000D01*
X108050000Y-99425000D02*
X108725001Y-98750000D01*
X90725000Y-109100000D02*
X90050000Y-108425000D01*
X111725000Y-100099999D02*
X111050000Y-99424999D01*
X105725000Y-100099999D02*
X105050000Y-99424999D01*
X108725000Y-110750000D02*
X108725000Y-109100000D01*
X96725000Y-98750000D02*
X96725000Y-97100000D01*
X99050000Y-102425000D02*
X99725000Y-101750000D01*
X90725000Y-106099999D02*
X90050000Y-105424999D01*
X102050000Y-111425000D02*
X102725000Y-110749999D01*
X111725000Y-98750000D02*
X111725000Y-97100000D01*
X96725001Y-103100000D02*
X96050001Y-102425000D01*
X111050000Y-99424999D02*
X111725000Y-98750000D01*
X111050000Y-102425000D02*
X111725000Y-101749999D01*
X108050000Y-111425000D02*
X108725000Y-110750000D01*
X96050000Y-108424999D02*
X96725000Y-107750000D01*
X99725000Y-103100000D02*
X99050000Y-102425000D01*
X93725000Y-91099999D02*
X93050001Y-90425000D01*
X99725001Y-107750000D02*
X99725000Y-106099999D01*
X99725000Y-94100000D02*
X99050000Y-93425000D01*
X105725001Y-101750000D02*
X105725000Y-100099999D01*
X105725000Y-97100000D02*
X105050000Y-96425000D01*
X96725001Y-101750000D02*
X96725000Y-100099999D01*
X102050001Y-108424999D02*
X102725000Y-107750000D01*
X96725001Y-95749999D02*
X96725001Y-94100000D01*
X108050000Y-105424999D02*
X108725000Y-104749999D01*
X99725000Y-97099999D02*
X99050000Y-96424999D01*
D12*
%TO.N,Net-(D1-DOUT)*%
X88950000Y-108460000D02*
X90050000Y-109560000D01*
%TO.N,Net-(D2-DOUT)*%
X88950000Y-105459999D02*
X90050000Y-106559999D01*
%TO.N,Net-(D3-DOUT)*%
X88950000Y-102459999D02*
X90050000Y-103559999D01*
%TO.N,Net-(D4-DOUT)*%
X88950000Y-99460000D02*
X90050000Y-100560000D01*
%TO.N,Net-(D5-DOUT)*%
X88950000Y-96459999D02*
X90050000Y-97559999D01*
%TO.N,Net-(D6-DOUT)*%
X88950000Y-93459999D02*
X90050000Y-94559999D01*
%TO.N,Net-(D7-DOUT)*%
X88950000Y-90460000D02*
X90050000Y-91560000D01*
%TO.N,Net-(D10-DIN)*%
X91950001Y-108459999D02*
X93050001Y-109559999D01*
%TO.N,Net-(D10-DOUT)*%
X91950001Y-105460000D02*
X93050001Y-106560000D01*
%TO.N,Net-(D11-DOUT)*%
X91950000Y-102459999D02*
X93050000Y-103559999D01*
%TO.N,Net-(D12-DOUT)*%
X91950001Y-99459999D02*
X93050001Y-100559999D01*
%TO.N,Net-(D13-DOUT)*%
X91950001Y-96460000D02*
X93050001Y-97560000D01*
%TO.N,Net-(D14-DOUT)*%
X91950000Y-93459999D02*
X93050000Y-94559999D01*
%TO.N,Net-(D15-DOUT)*%
X91950001Y-90459999D02*
X93050001Y-91559999D01*
%TO.N,Net-(D17-DOUT)*%
X94950001Y-108460000D02*
X96050000Y-109559999D01*
%TO.N,Net-(D18-DOUT)*%
X94950000Y-105460000D02*
X96050000Y-106560000D01*
%TO.N,Net-(D19-DOUT)*%
X94950001Y-102459999D02*
X96050001Y-103559999D01*
%TO.N,Net-(D20-DOUT)*%
X94950000Y-99459999D02*
X96050000Y-100559999D01*
%TO.N,Net-(D21-DOUT)*%
X94950000Y-96460000D02*
X96050000Y-97560000D01*
%TO.N,Net-(D22-DOUT)*%
X94950001Y-93459999D02*
X96050001Y-94559999D01*
%TO.N,Net-(D23-DOUT)*%
X94950000Y-90459999D02*
X96050000Y-91559999D01*
%TO.N,Net-(D25-DOUT)*%
X97950000Y-108460000D02*
X99050000Y-109560000D01*
%TO.N,Net-(D26-DOUT)*%
X97950001Y-105460000D02*
X99050000Y-106559999D01*
%TO.N,Net-(D27-DOUT)*%
X97950000Y-102459999D02*
X99050000Y-103559999D01*
%TO.N,Net-(D28-DOUT)*%
X97950000Y-99460000D02*
X99050000Y-100560000D01*
%TO.N,Net-(D29-DOUT)*%
X97950000Y-96459999D02*
X99050000Y-97559999D01*
%TO.N,Net-(D30-DOUT)*%
X97950000Y-93459999D02*
X99050000Y-94559999D01*
%TO.N,Net-(D31-DOUT)*%
X97950000Y-90460000D02*
X99050000Y-91560000D01*
%TO.N,Net-(D33-DOUT)*%
X100950000Y-108459999D02*
X102050001Y-109559999D01*
%TO.N,Net-(D34-DOUT)*%
X100950000Y-105460000D02*
X102050001Y-106560000D01*
%TO.N,Net-(D35-DOUT)*%
X100950000Y-102460000D02*
X102050000Y-103559999D01*
%TO.N,Net-(D36-DOUT)*%
X100950000Y-99459999D02*
X102050001Y-100559999D01*
%TO.N,Net-(D37-DOUT)*%
X100950000Y-96460000D02*
X102050001Y-97560000D01*
%TO.N,Net-(D38-DOUT)*%
X100950000Y-93459999D02*
X102050000Y-94559999D01*
%TO.N,Net-(D39-DOUT)*%
X100950000Y-90459999D02*
X102050001Y-91559999D01*
%TO.N,Net-(D41-DOUT)*%
X103950001Y-108460000D02*
X105050000Y-109559999D01*
%TO.N,Net-(D42-DOUT)*%
X103950000Y-105460000D02*
X105050000Y-106560000D01*
%TO.N,Net-(D43-DOUT)*%
X103950001Y-102459999D02*
X105050001Y-103559999D01*
%TO.N,Net-(D44-DOUT)*%
X103950001Y-99460000D02*
X105050000Y-100559999D01*
%TO.N,Net-(D45-DOUT)*%
X103950000Y-96460000D02*
X105050000Y-97560000D01*
%TO.N,Net-(D46-DOUT)*%
X103950001Y-93459999D02*
X105050001Y-94559999D01*
%TO.N,Net-(D47-DOUT)*%
X103950000Y-90459999D02*
X105050000Y-91559999D01*
%TO.N,Net-(D49-DOUT)*%
X106950000Y-108460000D02*
X108050000Y-109560000D01*
%TO.N,Net-(D50-DOUT)*%
X106950001Y-105460000D02*
X108050000Y-106559999D01*
%TO.N,Net-(D51-DOUT)*%
X106950000Y-102459999D02*
X108050000Y-103559999D01*
%TO.N,Net-(D52-DOUT)*%
X106950000Y-99460000D02*
X108050000Y-100560000D01*
%TO.N,Net-(D53-DOUT)*%
X106950001Y-96460000D02*
X108050000Y-97559999D01*
%TO.N,Net-(D54-DOUT)*%
X106950000Y-93459999D02*
X108050000Y-94559999D01*
%TO.N,Net-(D55-DOUT)*%
X106950000Y-90460000D02*
X108050000Y-91560000D01*
%TO.N,Net-(D57-DOUT)*%
X109950000Y-108459999D02*
X111050000Y-109559999D01*
%TO.N,Net-(D58-DOUT)*%
X109950000Y-105460000D02*
X111050000Y-106560000D01*
%TO.N,Net-(D59-DOUT)*%
X109950000Y-102460000D02*
X111050000Y-103559999D01*
%TO.N,Net-(D60-DOUT)*%
X109950000Y-99459999D02*
X111050000Y-100559999D01*
%TO.N,Net-(D61-DOUT)*%
X109950000Y-96460000D02*
X111050000Y-97560000D01*
%TO.N,Net-(D62-DOUT)*%
X109950000Y-93460000D02*
X111050000Y-94559999D01*
%TO.N,Net-(D63-DOUT)*%
X109950000Y-90459999D02*
X111050000Y-91559999D01*
%TD*%
M02*
