%TF.GenerationSoftware,KiCad,Pcbnew,(7.0.0)*%
%TF.CreationDate,2023-08-02T11:45:28+02:00*%
%TF.ProjectId,WS2812B-2020_8x8,57533238-3132-4422-9d32-3032305f3878,rev?*%
%TF.SameCoordinates,Original*%
%TF.FileFunction,Drillmap*%
%TF.FilePolarity,Positive*%
%FSLAX45Y45*%
G04 Gerber Fmt 4.5, Leading zero omitted, Abs format (unit mm)*
G04 Created by KiCad (PCBNEW (7.0.0)) date 2023-08-02 11:45:28*
%MOMM*%
%LPD*%
G01*
G04 APERTURE LIST*
%ADD10C,0.100000*%
%ADD11C,0.200000*%
%ADD12C,0.050000*%
G04 APERTURE END LIST*
D10*
X8750000Y-8750000D02*
X11250000Y-8750000D01*
X11250000Y-8750000D02*
X11250000Y-11250000D01*
X11250000Y-11250000D02*
X8750000Y-11250000D01*
X8750000Y-11250000D02*
X8750000Y-8750000D01*
D11*
D12*
X8865000Y-11070000D02*
X8915000Y-11120000D01*
X8915000Y-11070000D02*
X8865000Y-11120000D01*
X8870000Y-8834500D02*
X8920000Y-8884500D01*
X8920000Y-8834500D02*
X8870000Y-8884500D01*
X8980000Y-11117500D02*
X9030000Y-11167500D01*
X9030000Y-11117500D02*
X8980000Y-11167500D01*
X9020000Y-8900000D02*
X9070000Y-8950000D01*
X9070000Y-8900000D02*
X9020000Y-8950000D01*
X9170000Y-8834500D02*
X9220000Y-8884500D01*
X9220000Y-8834500D02*
X9170000Y-8884500D01*
X9170000Y-11040000D02*
X9220000Y-11090000D01*
X9220000Y-11040000D02*
X9170000Y-11090000D01*
X9280000Y-11117500D02*
X9330000Y-11167500D01*
X9330000Y-11117500D02*
X9280000Y-11167500D01*
X9320000Y-8900000D02*
X9370000Y-8950000D01*
X9370000Y-8900000D02*
X9320000Y-8950000D01*
X9470000Y-8834500D02*
X9520000Y-8884500D01*
X9520000Y-8834500D02*
X9470000Y-8884500D01*
X9470000Y-11040000D02*
X9520000Y-11090000D01*
X9520000Y-11040000D02*
X9470000Y-11090000D01*
X9580000Y-11117500D02*
X9630000Y-11167500D01*
X9630000Y-11117500D02*
X9580000Y-11167500D01*
X9620000Y-8900000D02*
X9670000Y-8950000D01*
X9670000Y-8900000D02*
X9620000Y-8950000D01*
X9770000Y-8834500D02*
X9820000Y-8884500D01*
X9820000Y-8834500D02*
X9770000Y-8884500D01*
X9770000Y-11040000D02*
X9820000Y-11090000D01*
X9820000Y-11040000D02*
X9770000Y-11090000D01*
X9880000Y-11117500D02*
X9930000Y-11167500D01*
X9930000Y-11117500D02*
X9880000Y-11167500D01*
X9920000Y-8900000D02*
X9970000Y-8950000D01*
X9970000Y-8900000D02*
X9920000Y-8950000D01*
X10070000Y-8834500D02*
X10120000Y-8884500D01*
X10120000Y-8834500D02*
X10070000Y-8884500D01*
X10070000Y-11040000D02*
X10120000Y-11090000D01*
X10120000Y-11040000D02*
X10070000Y-11090000D01*
X10180000Y-11117500D02*
X10230000Y-11167500D01*
X10230000Y-11117500D02*
X10180000Y-11167500D01*
X10220000Y-8900000D02*
X10270000Y-8950000D01*
X10270000Y-8900000D02*
X10220000Y-8950000D01*
X10370000Y-8834500D02*
X10420000Y-8884500D01*
X10420000Y-8834500D02*
X10370000Y-8884500D01*
X10370000Y-11040000D02*
X10420000Y-11090000D01*
X10420000Y-11040000D02*
X10370000Y-11090000D01*
X10480000Y-11117500D02*
X10530000Y-11167500D01*
X10530000Y-11117500D02*
X10480000Y-11167500D01*
X10520000Y-8900000D02*
X10570000Y-8950000D01*
X10570000Y-8900000D02*
X10520000Y-8950000D01*
X10670000Y-8834500D02*
X10720000Y-8884500D01*
X10720000Y-8834500D02*
X10670000Y-8884500D01*
X10670000Y-11040000D02*
X10720000Y-11090000D01*
X10720000Y-11040000D02*
X10670000Y-11090000D01*
X10780000Y-11117500D02*
X10830000Y-11167500D01*
X10830000Y-11117500D02*
X10780000Y-11167500D01*
X10820000Y-8900000D02*
X10870000Y-8950000D01*
X10870000Y-8900000D02*
X10820000Y-8950000D01*
X10970000Y-8834500D02*
X11020000Y-8884500D01*
X11020000Y-8834500D02*
X10970000Y-8884500D01*
X10970000Y-11040000D02*
X11020000Y-11090000D01*
X11020000Y-11040000D02*
X10970000Y-11090000D01*
X11075000Y-8917550D02*
X11125000Y-8967550D01*
X11125000Y-8917550D02*
X11075000Y-8967550D01*
X11080000Y-11117500D02*
X11130000Y-11167500D01*
X11130000Y-11117500D02*
X11080000Y-11167500D01*
D11*
X8992619Y-11548476D02*
X8992619Y-11348476D01*
X8992619Y-11348476D02*
X9040238Y-11348476D01*
X9040238Y-11348476D02*
X9068810Y-11358000D01*
X9068810Y-11358000D02*
X9087857Y-11377048D01*
X9087857Y-11377048D02*
X9097381Y-11396095D01*
X9097381Y-11396095D02*
X9106905Y-11434190D01*
X9106905Y-11434190D02*
X9106905Y-11462762D01*
X9106905Y-11462762D02*
X9097381Y-11500857D01*
X9097381Y-11500857D02*
X9087857Y-11519905D01*
X9087857Y-11519905D02*
X9068810Y-11538952D01*
X9068810Y-11538952D02*
X9040238Y-11548476D01*
X9040238Y-11548476D02*
X8992619Y-11548476D01*
X9192619Y-11548476D02*
X9192619Y-11415143D01*
X9192619Y-11453238D02*
X9202143Y-11434190D01*
X9202143Y-11434190D02*
X9211667Y-11424667D01*
X9211667Y-11424667D02*
X9230714Y-11415143D01*
X9230714Y-11415143D02*
X9249762Y-11415143D01*
X9316429Y-11548476D02*
X9316429Y-11415143D01*
X9316429Y-11348476D02*
X9306905Y-11358000D01*
X9306905Y-11358000D02*
X9316429Y-11367524D01*
X9316429Y-11367524D02*
X9325952Y-11358000D01*
X9325952Y-11358000D02*
X9316429Y-11348476D01*
X9316429Y-11348476D02*
X9316429Y-11367524D01*
X9440238Y-11548476D02*
X9421190Y-11538952D01*
X9421190Y-11538952D02*
X9411667Y-11519905D01*
X9411667Y-11519905D02*
X9411667Y-11348476D01*
X9545000Y-11548476D02*
X9525952Y-11538952D01*
X9525952Y-11538952D02*
X9516429Y-11519905D01*
X9516429Y-11519905D02*
X9516429Y-11348476D01*
X9741190Y-11548476D02*
X9741190Y-11348476D01*
X9741190Y-11348476D02*
X9807857Y-11491333D01*
X9807857Y-11491333D02*
X9874524Y-11348476D01*
X9874524Y-11348476D02*
X9874524Y-11548476D01*
X10055476Y-11548476D02*
X10055476Y-11443714D01*
X10055476Y-11443714D02*
X10045952Y-11424667D01*
X10045952Y-11424667D02*
X10026905Y-11415143D01*
X10026905Y-11415143D02*
X9988809Y-11415143D01*
X9988809Y-11415143D02*
X9969762Y-11424667D01*
X10055476Y-11538952D02*
X10036429Y-11548476D01*
X10036429Y-11548476D02*
X9988809Y-11548476D01*
X9988809Y-11548476D02*
X9969762Y-11538952D01*
X9969762Y-11538952D02*
X9960238Y-11519905D01*
X9960238Y-11519905D02*
X9960238Y-11500857D01*
X9960238Y-11500857D02*
X9969762Y-11481809D01*
X9969762Y-11481809D02*
X9988809Y-11472286D01*
X9988809Y-11472286D02*
X10036429Y-11472286D01*
X10036429Y-11472286D02*
X10055476Y-11462762D01*
X10150714Y-11415143D02*
X10150714Y-11615143D01*
X10150714Y-11424667D02*
X10169762Y-11415143D01*
X10169762Y-11415143D02*
X10207857Y-11415143D01*
X10207857Y-11415143D02*
X10226905Y-11424667D01*
X10226905Y-11424667D02*
X10236429Y-11434190D01*
X10236429Y-11434190D02*
X10245952Y-11453238D01*
X10245952Y-11453238D02*
X10245952Y-11510381D01*
X10245952Y-11510381D02*
X10236429Y-11529428D01*
X10236429Y-11529428D02*
X10226905Y-11538952D01*
X10226905Y-11538952D02*
X10207857Y-11548476D01*
X10207857Y-11548476D02*
X10169762Y-11548476D01*
X10169762Y-11548476D02*
X10150714Y-11538952D01*
X10331667Y-11529428D02*
X10341190Y-11538952D01*
X10341190Y-11538952D02*
X10331667Y-11548476D01*
X10331667Y-11548476D02*
X10322143Y-11538952D01*
X10322143Y-11538952D02*
X10331667Y-11529428D01*
X10331667Y-11529428D02*
X10331667Y-11548476D01*
X10331667Y-11424667D02*
X10341190Y-11434190D01*
X10341190Y-11434190D02*
X10331667Y-11443714D01*
X10331667Y-11443714D02*
X10322143Y-11434190D01*
X10322143Y-11434190D02*
X10331667Y-11424667D01*
X10331667Y-11424667D02*
X10331667Y-11443714D01*
D12*
X8695000Y-11870000D02*
X8745000Y-11920000D01*
X8745000Y-11870000D02*
X8695000Y-11920000D01*
D11*
X9030714Y-11768476D02*
X9049762Y-11768476D01*
X9049762Y-11768476D02*
X9068810Y-11778000D01*
X9068810Y-11778000D02*
X9078333Y-11787524D01*
X9078333Y-11787524D02*
X9087857Y-11806571D01*
X9087857Y-11806571D02*
X9097381Y-11844667D01*
X9097381Y-11844667D02*
X9097381Y-11892286D01*
X9097381Y-11892286D02*
X9087857Y-11930381D01*
X9087857Y-11930381D02*
X9078333Y-11949428D01*
X9078333Y-11949428D02*
X9068810Y-11958952D01*
X9068810Y-11958952D02*
X9049762Y-11968476D01*
X9049762Y-11968476D02*
X9030714Y-11968476D01*
X9030714Y-11968476D02*
X9011667Y-11958952D01*
X9011667Y-11958952D02*
X9002143Y-11949428D01*
X9002143Y-11949428D02*
X8992619Y-11930381D01*
X8992619Y-11930381D02*
X8983095Y-11892286D01*
X8983095Y-11892286D02*
X8983095Y-11844667D01*
X8983095Y-11844667D02*
X8992619Y-11806571D01*
X8992619Y-11806571D02*
X9002143Y-11787524D01*
X9002143Y-11787524D02*
X9011667Y-11778000D01*
X9011667Y-11778000D02*
X9030714Y-11768476D01*
X9183095Y-11949428D02*
X9192619Y-11958952D01*
X9192619Y-11958952D02*
X9183095Y-11968476D01*
X9183095Y-11968476D02*
X9173571Y-11958952D01*
X9173571Y-11958952D02*
X9183095Y-11949428D01*
X9183095Y-11949428D02*
X9183095Y-11968476D01*
X9373571Y-11768476D02*
X9278333Y-11768476D01*
X9278333Y-11768476D02*
X9268810Y-11863714D01*
X9268810Y-11863714D02*
X9278333Y-11854190D01*
X9278333Y-11854190D02*
X9297381Y-11844667D01*
X9297381Y-11844667D02*
X9345000Y-11844667D01*
X9345000Y-11844667D02*
X9364048Y-11854190D01*
X9364048Y-11854190D02*
X9373571Y-11863714D01*
X9373571Y-11863714D02*
X9383095Y-11882762D01*
X9383095Y-11882762D02*
X9383095Y-11930381D01*
X9383095Y-11930381D02*
X9373571Y-11949428D01*
X9373571Y-11949428D02*
X9364048Y-11958952D01*
X9364048Y-11958952D02*
X9345000Y-11968476D01*
X9345000Y-11968476D02*
X9297381Y-11968476D01*
X9297381Y-11968476D02*
X9278333Y-11958952D01*
X9278333Y-11958952D02*
X9268810Y-11949428D01*
X9506905Y-11768476D02*
X9525952Y-11768476D01*
X9525952Y-11768476D02*
X9545000Y-11778000D01*
X9545000Y-11778000D02*
X9554524Y-11787524D01*
X9554524Y-11787524D02*
X9564048Y-11806571D01*
X9564048Y-11806571D02*
X9573571Y-11844667D01*
X9573571Y-11844667D02*
X9573571Y-11892286D01*
X9573571Y-11892286D02*
X9564048Y-11930381D01*
X9564048Y-11930381D02*
X9554524Y-11949428D01*
X9554524Y-11949428D02*
X9545000Y-11958952D01*
X9545000Y-11958952D02*
X9525952Y-11968476D01*
X9525952Y-11968476D02*
X9506905Y-11968476D01*
X9506905Y-11968476D02*
X9487857Y-11958952D01*
X9487857Y-11958952D02*
X9478333Y-11949428D01*
X9478333Y-11949428D02*
X9468810Y-11930381D01*
X9468810Y-11930381D02*
X9459286Y-11892286D01*
X9459286Y-11892286D02*
X9459286Y-11844667D01*
X9459286Y-11844667D02*
X9468810Y-11806571D01*
X9468810Y-11806571D02*
X9478333Y-11787524D01*
X9478333Y-11787524D02*
X9487857Y-11778000D01*
X9487857Y-11778000D02*
X9506905Y-11768476D01*
X9697381Y-11768476D02*
X9716429Y-11768476D01*
X9716429Y-11768476D02*
X9735476Y-11778000D01*
X9735476Y-11778000D02*
X9745000Y-11787524D01*
X9745000Y-11787524D02*
X9754524Y-11806571D01*
X9754524Y-11806571D02*
X9764048Y-11844667D01*
X9764048Y-11844667D02*
X9764048Y-11892286D01*
X9764048Y-11892286D02*
X9754524Y-11930381D01*
X9754524Y-11930381D02*
X9745000Y-11949428D01*
X9745000Y-11949428D02*
X9735476Y-11958952D01*
X9735476Y-11958952D02*
X9716429Y-11968476D01*
X9716429Y-11968476D02*
X9697381Y-11968476D01*
X9697381Y-11968476D02*
X9678333Y-11958952D01*
X9678333Y-11958952D02*
X9668810Y-11949428D01*
X9668810Y-11949428D02*
X9659286Y-11930381D01*
X9659286Y-11930381D02*
X9649762Y-11892286D01*
X9649762Y-11892286D02*
X9649762Y-11844667D01*
X9649762Y-11844667D02*
X9659286Y-11806571D01*
X9659286Y-11806571D02*
X9668810Y-11787524D01*
X9668810Y-11787524D02*
X9678333Y-11778000D01*
X9678333Y-11778000D02*
X9697381Y-11768476D01*
X9849762Y-11968476D02*
X9849762Y-11835143D01*
X9849762Y-11854190D02*
X9859286Y-11844667D01*
X9859286Y-11844667D02*
X9878333Y-11835143D01*
X9878333Y-11835143D02*
X9906905Y-11835143D01*
X9906905Y-11835143D02*
X9925952Y-11844667D01*
X9925952Y-11844667D02*
X9935476Y-11863714D01*
X9935476Y-11863714D02*
X9935476Y-11968476D01*
X9935476Y-11863714D02*
X9945000Y-11844667D01*
X9945000Y-11844667D02*
X9964048Y-11835143D01*
X9964048Y-11835143D02*
X9992619Y-11835143D01*
X9992619Y-11835143D02*
X10011667Y-11844667D01*
X10011667Y-11844667D02*
X10021191Y-11863714D01*
X10021191Y-11863714D02*
X10021191Y-11968476D01*
X10116429Y-11968476D02*
X10116429Y-11835143D01*
X10116429Y-11854190D02*
X10125952Y-11844667D01*
X10125952Y-11844667D02*
X10145000Y-11835143D01*
X10145000Y-11835143D02*
X10173572Y-11835143D01*
X10173572Y-11835143D02*
X10192619Y-11844667D01*
X10192619Y-11844667D02*
X10202143Y-11863714D01*
X10202143Y-11863714D02*
X10202143Y-11968476D01*
X10202143Y-11863714D02*
X10211667Y-11844667D01*
X10211667Y-11844667D02*
X10230714Y-11835143D01*
X10230714Y-11835143D02*
X10259286Y-11835143D01*
X10259286Y-11835143D02*
X10278333Y-11844667D01*
X10278333Y-11844667D02*
X10287857Y-11863714D01*
X10287857Y-11863714D02*
X10287857Y-11968476D01*
X10645952Y-11758952D02*
X10474524Y-12016095D01*
X10870714Y-11768476D02*
X10889762Y-11768476D01*
X10889762Y-11768476D02*
X10908810Y-11778000D01*
X10908810Y-11778000D02*
X10918333Y-11787524D01*
X10918333Y-11787524D02*
X10927857Y-11806571D01*
X10927857Y-11806571D02*
X10937381Y-11844667D01*
X10937381Y-11844667D02*
X10937381Y-11892286D01*
X10937381Y-11892286D02*
X10927857Y-11930381D01*
X10927857Y-11930381D02*
X10918333Y-11949428D01*
X10918333Y-11949428D02*
X10908810Y-11958952D01*
X10908810Y-11958952D02*
X10889762Y-11968476D01*
X10889762Y-11968476D02*
X10870714Y-11968476D01*
X10870714Y-11968476D02*
X10851667Y-11958952D01*
X10851667Y-11958952D02*
X10842143Y-11949428D01*
X10842143Y-11949428D02*
X10832619Y-11930381D01*
X10832619Y-11930381D02*
X10823095Y-11892286D01*
X10823095Y-11892286D02*
X10823095Y-11844667D01*
X10823095Y-11844667D02*
X10832619Y-11806571D01*
X10832619Y-11806571D02*
X10842143Y-11787524D01*
X10842143Y-11787524D02*
X10851667Y-11778000D01*
X10851667Y-11778000D02*
X10870714Y-11768476D01*
X11023095Y-11949428D02*
X11032619Y-11958952D01*
X11032619Y-11958952D02*
X11023095Y-11968476D01*
X11023095Y-11968476D02*
X11013572Y-11958952D01*
X11013572Y-11958952D02*
X11023095Y-11949428D01*
X11023095Y-11949428D02*
X11023095Y-11968476D01*
X11156429Y-11768476D02*
X11175476Y-11768476D01*
X11175476Y-11768476D02*
X11194524Y-11778000D01*
X11194524Y-11778000D02*
X11204048Y-11787524D01*
X11204048Y-11787524D02*
X11213571Y-11806571D01*
X11213571Y-11806571D02*
X11223095Y-11844667D01*
X11223095Y-11844667D02*
X11223095Y-11892286D01*
X11223095Y-11892286D02*
X11213571Y-11930381D01*
X11213571Y-11930381D02*
X11204048Y-11949428D01*
X11204048Y-11949428D02*
X11194524Y-11958952D01*
X11194524Y-11958952D02*
X11175476Y-11968476D01*
X11175476Y-11968476D02*
X11156429Y-11968476D01*
X11156429Y-11968476D02*
X11137381Y-11958952D01*
X11137381Y-11958952D02*
X11127857Y-11949428D01*
X11127857Y-11949428D02*
X11118333Y-11930381D01*
X11118333Y-11930381D02*
X11108810Y-11892286D01*
X11108810Y-11892286D02*
X11108810Y-11844667D01*
X11108810Y-11844667D02*
X11118333Y-11806571D01*
X11118333Y-11806571D02*
X11127857Y-11787524D01*
X11127857Y-11787524D02*
X11137381Y-11778000D01*
X11137381Y-11778000D02*
X11156429Y-11768476D01*
X11413571Y-11968476D02*
X11299286Y-11968476D01*
X11356429Y-11968476D02*
X11356429Y-11768476D01*
X11356429Y-11768476D02*
X11337381Y-11797048D01*
X11337381Y-11797048D02*
X11318333Y-11816095D01*
X11318333Y-11816095D02*
X11299286Y-11825619D01*
X11508810Y-11968476D02*
X11546905Y-11968476D01*
X11546905Y-11968476D02*
X11565952Y-11958952D01*
X11565952Y-11958952D02*
X11575476Y-11949428D01*
X11575476Y-11949428D02*
X11594524Y-11920857D01*
X11594524Y-11920857D02*
X11604048Y-11882762D01*
X11604048Y-11882762D02*
X11604048Y-11806571D01*
X11604048Y-11806571D02*
X11594524Y-11787524D01*
X11594524Y-11787524D02*
X11585000Y-11778000D01*
X11585000Y-11778000D02*
X11565952Y-11768476D01*
X11565952Y-11768476D02*
X11527857Y-11768476D01*
X11527857Y-11768476D02*
X11508810Y-11778000D01*
X11508810Y-11778000D02*
X11499286Y-11787524D01*
X11499286Y-11787524D02*
X11489762Y-11806571D01*
X11489762Y-11806571D02*
X11489762Y-11854190D01*
X11489762Y-11854190D02*
X11499286Y-11873238D01*
X11499286Y-11873238D02*
X11508810Y-11882762D01*
X11508810Y-11882762D02*
X11527857Y-11892286D01*
X11527857Y-11892286D02*
X11565952Y-11892286D01*
X11565952Y-11892286D02*
X11585000Y-11882762D01*
X11585000Y-11882762D02*
X11594524Y-11873238D01*
X11594524Y-11873238D02*
X11604048Y-11854190D01*
X11670714Y-11768476D02*
X11804048Y-11768476D01*
X11804048Y-11768476D02*
X11718333Y-11968476D01*
X11870714Y-11768476D02*
X11870714Y-11806571D01*
X11946905Y-11768476D02*
X11946905Y-11806571D01*
X12209762Y-12044667D02*
X12200238Y-12035143D01*
X12200238Y-12035143D02*
X12181191Y-12006571D01*
X12181191Y-12006571D02*
X12171667Y-11987524D01*
X12171667Y-11987524D02*
X12162143Y-11958952D01*
X12162143Y-11958952D02*
X12152619Y-11911333D01*
X12152619Y-11911333D02*
X12152619Y-11873238D01*
X12152619Y-11873238D02*
X12162143Y-11825619D01*
X12162143Y-11825619D02*
X12171667Y-11797048D01*
X12171667Y-11797048D02*
X12181191Y-11778000D01*
X12181191Y-11778000D02*
X12200238Y-11749428D01*
X12200238Y-11749428D02*
X12209762Y-11739905D01*
X12266905Y-11768476D02*
X12390714Y-11768476D01*
X12390714Y-11768476D02*
X12324048Y-11844667D01*
X12324048Y-11844667D02*
X12352619Y-11844667D01*
X12352619Y-11844667D02*
X12371667Y-11854190D01*
X12371667Y-11854190D02*
X12381191Y-11863714D01*
X12381191Y-11863714D02*
X12390714Y-11882762D01*
X12390714Y-11882762D02*
X12390714Y-11930381D01*
X12390714Y-11930381D02*
X12381191Y-11949428D01*
X12381191Y-11949428D02*
X12371667Y-11958952D01*
X12371667Y-11958952D02*
X12352619Y-11968476D01*
X12352619Y-11968476D02*
X12295476Y-11968476D01*
X12295476Y-11968476D02*
X12276429Y-11958952D01*
X12276429Y-11958952D02*
X12266905Y-11949428D01*
X12466905Y-11787524D02*
X12476429Y-11778000D01*
X12476429Y-11778000D02*
X12495476Y-11768476D01*
X12495476Y-11768476D02*
X12543095Y-11768476D01*
X12543095Y-11768476D02*
X12562143Y-11778000D01*
X12562143Y-11778000D02*
X12571667Y-11787524D01*
X12571667Y-11787524D02*
X12581191Y-11806571D01*
X12581191Y-11806571D02*
X12581191Y-11825619D01*
X12581191Y-11825619D02*
X12571667Y-11854190D01*
X12571667Y-11854190D02*
X12457381Y-11968476D01*
X12457381Y-11968476D02*
X12581191Y-11968476D01*
X12786905Y-11968476D02*
X12786905Y-11768476D01*
X12872619Y-11968476D02*
X12872619Y-11863714D01*
X12872619Y-11863714D02*
X12863095Y-11844667D01*
X12863095Y-11844667D02*
X12844048Y-11835143D01*
X12844048Y-11835143D02*
X12815476Y-11835143D01*
X12815476Y-11835143D02*
X12796429Y-11844667D01*
X12796429Y-11844667D02*
X12786905Y-11854190D01*
X12996429Y-11968476D02*
X12977381Y-11958952D01*
X12977381Y-11958952D02*
X12967857Y-11949428D01*
X12967857Y-11949428D02*
X12958333Y-11930381D01*
X12958333Y-11930381D02*
X12958333Y-11873238D01*
X12958333Y-11873238D02*
X12967857Y-11854190D01*
X12967857Y-11854190D02*
X12977381Y-11844667D01*
X12977381Y-11844667D02*
X12996429Y-11835143D01*
X12996429Y-11835143D02*
X13025000Y-11835143D01*
X13025000Y-11835143D02*
X13044048Y-11844667D01*
X13044048Y-11844667D02*
X13053572Y-11854190D01*
X13053572Y-11854190D02*
X13063095Y-11873238D01*
X13063095Y-11873238D02*
X13063095Y-11930381D01*
X13063095Y-11930381D02*
X13053572Y-11949428D01*
X13053572Y-11949428D02*
X13044048Y-11958952D01*
X13044048Y-11958952D02*
X13025000Y-11968476D01*
X13025000Y-11968476D02*
X12996429Y-11968476D01*
X13177381Y-11968476D02*
X13158333Y-11958952D01*
X13158333Y-11958952D02*
X13148810Y-11939905D01*
X13148810Y-11939905D02*
X13148810Y-11768476D01*
X13329762Y-11958952D02*
X13310714Y-11968476D01*
X13310714Y-11968476D02*
X13272619Y-11968476D01*
X13272619Y-11968476D02*
X13253572Y-11958952D01*
X13253572Y-11958952D02*
X13244048Y-11939905D01*
X13244048Y-11939905D02*
X13244048Y-11863714D01*
X13244048Y-11863714D02*
X13253572Y-11844667D01*
X13253572Y-11844667D02*
X13272619Y-11835143D01*
X13272619Y-11835143D02*
X13310714Y-11835143D01*
X13310714Y-11835143D02*
X13329762Y-11844667D01*
X13329762Y-11844667D02*
X13339286Y-11863714D01*
X13339286Y-11863714D02*
X13339286Y-11882762D01*
X13339286Y-11882762D02*
X13244048Y-11901809D01*
X13415476Y-11958952D02*
X13434524Y-11968476D01*
X13434524Y-11968476D02*
X13472619Y-11968476D01*
X13472619Y-11968476D02*
X13491667Y-11958952D01*
X13491667Y-11958952D02*
X13501191Y-11939905D01*
X13501191Y-11939905D02*
X13501191Y-11930381D01*
X13501191Y-11930381D02*
X13491667Y-11911333D01*
X13491667Y-11911333D02*
X13472619Y-11901809D01*
X13472619Y-11901809D02*
X13444048Y-11901809D01*
X13444048Y-11901809D02*
X13425000Y-11892286D01*
X13425000Y-11892286D02*
X13415476Y-11873238D01*
X13415476Y-11873238D02*
X13415476Y-11863714D01*
X13415476Y-11863714D02*
X13425000Y-11844667D01*
X13425000Y-11844667D02*
X13444048Y-11835143D01*
X13444048Y-11835143D02*
X13472619Y-11835143D01*
X13472619Y-11835143D02*
X13491667Y-11844667D01*
X13567857Y-12044667D02*
X13577381Y-12035143D01*
X13577381Y-12035143D02*
X13596429Y-12006571D01*
X13596429Y-12006571D02*
X13605953Y-11987524D01*
X13605953Y-11987524D02*
X13615476Y-11958952D01*
X13615476Y-11958952D02*
X13625000Y-11911333D01*
X13625000Y-11911333D02*
X13625000Y-11873238D01*
X13625000Y-11873238D02*
X13615476Y-11825619D01*
X13615476Y-11825619D02*
X13605953Y-11797048D01*
X13605953Y-11797048D02*
X13596429Y-11778000D01*
X13596429Y-11778000D02*
X13577381Y-11749428D01*
X13577381Y-11749428D02*
X13567857Y-11739905D01*
M02*
