M48
; DRILL file {KiCad (7.0.0)} date Wed Aug  2 11:45:27 2023
; FORMAT={-:-/ absolute / inch / decimal}
; #@! TF.CreationDate,2023-08-02T11:45:27+02:00
; #@! TF.GenerationSoftware,Kicad,Pcbnew,(7.0.0)
; #@! TF.FileFunction,Plated,1,2,PTH
FMAT,2
INCH
; #@! TA.AperFunction,Plated,PTH,ViaDrill
T1C0.0197
%
G90
G05
T1
X3.5Y-4.3681
X3.502Y-3.488
X3.5453Y-4.3868
X3.561Y-3.5138
X3.6201Y-3.488
X3.6201Y-4.3563
X3.6634Y-4.3868
X3.6791Y-3.5138
X3.7382Y-3.488
X3.7382Y-4.3563
X3.7815Y-4.3868
X3.7972Y-3.5138
X3.8563Y-3.488
X3.8563Y-4.3563
X3.8996Y-4.3868
X3.9154Y-3.5138
X3.9744Y-3.488
X3.9744Y-4.3563
X4.0177Y-4.3868
X4.0335Y-3.5138
X4.0925Y-3.488
X4.0925Y-4.3563
X4.1358Y-4.3868
X4.1516Y-3.5138
X4.2106Y-3.488
X4.2106Y-4.3563
X4.2539Y-4.3868
X4.2697Y-3.5138
X4.3287Y-3.488
X4.3287Y-4.3563
X4.3701Y-3.5207
X4.372Y-4.3868
T0
M30
